<?xml version="1.0" encoding="utf-8"?>
<!-- Generator: Adobe Illustrator 26.2.1, SVG Export Plug-In . SVG Version: 6.00 Build 0)  -->
<svg version="1.1" id="Subdivisions" xmlns="http://www.w3.org/2000/svg" xmlns:xlink="http://www.w3.org/1999/xlink" x="0px" y="0px" viewBox="0 0 1428 1294" style="enable-background:new 0 0 1428 1294;" xml:space="preserve">
<style type="text/css"> st0{fill:#F7FFF4;stroke:#000000;stroke-miterlimit:10;} st1{fill:#1E1C20;stroke:#000000;stroke-miterlimit:10;} st2{fill:#4142BF;stroke:#000000;stroke-miterlimit:10;} st3{fill:#5CB47E;stroke:#000000;stroke-miterlimit:10;} st4{fill:#1E9F7E;stroke:#000000;stroke-miterlimit:10;} st5{fill:#1E467E;stroke:#000000;stroke-miterlimit:10;} st6{fill:#D9FF7E;stroke:#000000;stroke-miterlimit:10;} st7{fill:#565663;stroke:#000000;stroke-miterlimit:10;} st8{fill:#1ECF7E;stroke:#000000;stroke-miterlimit:10;} st9{fill:#FFFF7E;stroke:#000000;stroke-miterlimit:10;} st10{fill:#F5217E;stroke:#000000;stroke-miterlimit:10;} st11{fill:#9DFF7E;stroke:#000000;stroke-miterlimit:10;} st12{fill:#00FFFF;stroke:#000000;stroke-miterlimit:10;} st13{fill:#860000;stroke:#000000;stroke-miterlimit:10;} st14{fill:#1EA9D0;stroke:#000000;stroke-miterlimit:10;} st15{fill:#1EB2B1;stroke:#000000;stroke-miterlimit:10;} st16{fill:#1EBA4C;stroke:#000000;stroke-miterlimit:10;} st17{fill:#9D617E;stroke:#000000;stroke-miterlimit:10;} st18{fill:#1EBABE;stroke:#000000;stroke-miterlimit:10;} st19{fill:#43477E;stroke:#000000;stroke-miterlimit:10;} st20{fill:#1E367E;stroke:#000000;stroke-miterlimit:10;} st21{fill:#1EDFCE;stroke:#000000;stroke-miterlimit:10;} st22{fill:#C43B7E;stroke:#000000;stroke-miterlimit:10;} st23{fill:#9AB07E;stroke:#000000;stroke-miterlimit:10;} st24{fill:#6A6A7E;stroke:#000000;stroke-miterlimit:10;} st25{fill:#B0CFC6;stroke:#000000;stroke-miterlimit:10;} st26{fill:#14187E;stroke:#000000;stroke-miterlimit:10;} st27{fill:#A75351;stroke:#000000;stroke-miterlimit:10;} st28{fill:#A7B025;stroke:#000000;stroke-miterlimit:10;} st29{fill:#DF9761;stroke:#000000;stroke-miterlimit:10;} st30{fill:#AEB687;stroke:#000000;stroke-miterlimit:10;} st31{fill:#F0CC7E;stroke:#000000;stroke-miterlimit:10;} st32{fill:#573F7E;stroke:#000000;stroke-miterlimit:10;} st33{fill:#AAFF7E;stroke:#000000;stroke-miterlimit:10;} st34{fill:#6D21A7;stroke:#000000;stroke-miterlimit:10;} st35{fill:#561F5E;stroke:#000000;stroke-miterlimit:10;} st36{fill:#1E90B7;stroke:#000000;stroke-miterlimit:10;} st37{fill:#3F227E;stroke:#000000;stroke-miterlimit:10;} st38{fill:#C8C7F9;stroke:#000000;stroke-miterlimit:10;} st39{fill:#B1257E;stroke:#000000;stroke-miterlimit:10;} st40{fill:#1EFF7E;stroke:#000000;stroke-miterlimit:10;}
</style>
<polygon id="polarSink" class="st0" points="730,752.94 760.6,731.74 761.62,709.66 772.74,697.68 783.7,672.35 802.21,645.91 808.59,610.41 787.72,581.58 763.32,582.51 755.09,586.2 736.08,586.48 723.73,573.97 709.68,573.97 699.69,581.5 678.08,588.81 646.38,591.65 618.57,613.16 599.84,645.91 593.6,681 598.21,686.98 605.8,696.89 614.32,698.88 630.85,713.21 650.93,721.87 668.84,719.01 678.74,737.76 692.25,752.94 "/>

<g>

	<polygon id="falseWallEast-6" class="st1" points="802.21,645.91 864.35,645.91 862.21,590.89 808.59,610.41 	"/>
	<polygon id="falseWallEast-4" class="st1" points="772.74,697.68 788.49,710.89 807.35,726.72 842.38,711.04 848.55,695.96 783.7,672.35"/>
	<polygon id="falseWallEast-5" class="st1" points="783.7,672.35 848.55,695.96 860.04,667.88 859.65,652.58 864.35,645.91 802.21,645.91"/>
	<polygon id="falseWallEast-7" class="st1" points="808.59,610.41 862.21,590.89 840.69,560.19 830.52,545.66 787.72,581.58 	"/>
	<polygon id="falseWallEast-8" class="st1" points="763.52,570.97 763.32,582.51 787.72,581.58 830.52,545.66 799.62,524.29 790.59,544.69"/>

	<polygon id="minorErg-6" class="st2" points="864.35,645.91 980.09,645.91 984.61,625.31 989.12,604.72 986.37,551.36 984.28,546.46 862.21,590.89 	"/>
	<polygon id="minorErg-4" class="st2" points="848.55,695.96 842.38,711.04 869.06,723.6 878.48,721.63 898.49,735.76 911.44,784.8 927.52,808.73 937.72,809.13 955.77,774.99 948.08,732.19"/>
	<polygon id="minorErg-5" class="st2" points="860.04,667.88 848.55,695.96 948.08,732.19 980.09,645.91 864.35,645.91 859.65,652.58"/>
	<polygon id="minorErg-7" class="st2" points="954.2,489.37 945.57,500.35 935.37,505.06 927.91,522.32 912.61,520.75 879.26,532.92 871.81,544.3 840.69,560.19 862.21,590.89 984.28,546.46 972.25,518.4 970.68,482.7"/>

	<polygon id="shieldWall-7" class="st3" points="1127.43,296.52 830.52,545.66 840.69,560.19 871.81,544.3 879.26,532.92 912.61,520.75 927.91,522.32 935.37,505.06 945.57,500.35 954.2,489.37 970.68,482.7 980.1,478.77 989.51,474.85 992.85,470.73 996.18,466.61 995.79,457.2 1007.17,454.45 1025.22,438.76 1037.38,406.19 1083.06,369.33 1094.74,359.91 1106.43,350.48 1127.62,306.14 1127.43,296.52 	"/>
	<polygon id="shieldWall-8" class="st3" points="1025.61,326.94 1026,340.67 985.98,371.66 967.54,373.63 881.23,424.24 870.61,424.95 863.57,425.42 836.5,469.36 838.85,476.81 799.62,524.29 830.52,545.66 1127.43,296.52 1095.49,286.64 1055.04,290.84 1055.03,290.84 	"/>

	<path id="pastyMesa-6" class="st4" d="M984.28,546.46l2.1,4.89l2.75,53.36l-4.51,20.6l-4.51,20.6h279.35l0.79-18.44h-14.91l-24.33-29.03l-4.71-32.17 l10.99-25.11l19.62-14.91l3.14-10.99l39.01-40.19c-0.07-0.23-0.14-0.47-0.21-0.7c-2.03-6.84-4.17-13.62-6.43-20.35 c-0.13-0.38-0.25-0.77-0.38-1.15c-1.08-3.19-2.19-6.37-3.32-9.54c-0.19-0.52-0.37-1.04-0.56-1.56c-0.24-0.67-0.49-1.33-0.74-2 L984.28,546.46z"/>
	<polygon id="pastyMesa-4" class="st4" points="948.08,732.19 955.77,774.99 987.55,801.67 1005.21,799.71 1040.52,820.9 1056.21,819.72 1093.09,848.36 1115.45,809.91 1138.6,816.97 1168.42,820.5 1180.97,833.45 1211.97,842.08 1216.29,829.8 948.08,732.19 	"/>
	<polygon id="pastyMesa-5" class="st4" points="1244.93,758.51 1245.71,719.67 1241.79,707.12 1244.53,702.41 1239.04,688.68 1242.96,666.71 1259.44,645.91 980.09,645.91 948.08,732.19 1216.29,829.8 1234.73,777.35 	"/>
	<path id="pastyMesa-7" class="st4" d="M1233.55,390.5l-8.63,6.28l-6.28-6.28l-25.89,16.48l-13.34-9.42l-37.66,10.2l-13.34-12.55l-30.6,0.78 l-9.42-7.85l-5.32-18.81l-45.68,36.86l-12.16,32.56l-18.05,15.69l-11.38,2.75l0.39,9.42l-3.33,4.12l-3.33,4.12l-9.42,3.92 l-9.42,3.92l1.57,35.7l12.03,28.06l293.12-106.69c-0.9-2.48-1.8-4.95-2.74-7.41c-0.18-0.47-0.36-0.94-0.54-1.42 c-1.23-3.23-2.49-6.44-3.77-9.65c-0.01-0.01-0.01-0.03-0.02-0.04c-1.28-3.19-2.6-6.37-3.94-9.53c-0.21-0.51-0.43-1.01-0.64-1.52 c-1.29-3.03-2.6-6.04-3.94-9.05c-0.25-0.56-0.5-1.11-0.75-1.66c-1.37-3.05-2.76-6.09-4.17-9.12c-0.04-0.08-0.07-0.15-0.11-0.23 L1233.55,390.5z"/>

	<path id="garaKulon-7" class="st5" d="M1127.43,296.52l0.18,9.62l-21.19,44.33l-11.69,9.43l-11.69,9.43v0l5.32,18.81l9.42,7.85l30.6-0.78 l13.34,12.55l37.66-10.2l13.34,9.42l25.89-16.48l6.28,6.28l8.63-6.28l23.23-0.35c-0.13-0.27-0.25-0.53-0.38-0.8 c-1.1-2.33-2.22-4.66-3.35-6.98c-0.31-0.64-0.63-1.29-0.94-1.93c-1.27-2.59-2.56-5.17-3.87-7.74c-0.17-0.33-0.34-0.66-0.51-1 c-1.17-2.29-2.36-4.58-3.57-6.85c-0.34-0.65-0.69-1.3-1.03-1.95c-1.35-2.53-2.71-5.06-4.1-7.57c-0.17-0.31-0.35-0.63-0.52-0.94 c-1.25-2.26-2.52-4.51-3.8-6.75c-0.37-0.65-0.74-1.29-1.11-1.94c-1.43-2.48-2.87-4.96-4.34-7.42c-0.16-0.27-0.33-0.55-0.49-0.82 c-1.34-2.24-2.69-4.47-4.06-6.69c-0.39-0.64-0.78-1.27-1.18-1.91c-1.51-2.44-3.03-4.86-4.58-7.28c-0.15-0.23-0.3-0.46-0.45-0.69 c-1.43-2.22-2.87-4.43-4.33-6.64c-0.41-0.63-0.83-1.25-1.24-1.88c-1.59-2.39-3.19-4.76-4.81-7.13c-0.12-0.18-0.24-0.35-0.37-0.53 c-1.53-2.22-3.08-4.43-4.64-6.63c-0.43-0.6-0.85-1.2-1.28-1.8c-1.67-2.34-3.35-4.67-5.06-6.99c-0.09-0.12-0.17-0.23-0.26-0.35 c-1.63-2.22-3.29-4.42-4.95-6.62c-0.44-0.59-0.89-1.17-1.34-1.76c-1.75-2.29-3.51-4.57-5.29-6.84c-0.04-0.06-0.09-0.11-0.13-0.17 c-1.75-2.22-3.51-4.42-5.29-6.62c-0.46-0.57-0.92-1.13-1.38-1.69c-1.83-2.24-3.66-4.47-5.52-6.68L1127.43,296.52z"/>

<polygon id="tueksSietch-4" class="st6" points="1168.42,820.5 1138.6,816.97 1115.45,809.91 1093.09,848.36 1089.95,877 1098.58,913.1 1094.66,949.98 1099.37,968.42 1134.68,984.89 1179.8,945.66 1202.95,904.07 1202.55,870.72 
1211.97,842.08 1180.97,833.45"/>

<polygon id="falseWallSouth-4" class="st7" points="1094.66,949.98 1098.58,913.1 1089.95,877 1093.09,848.36 1056.21,819.72 1040.52,820.9 1005.21,799.71 987.55,801.67 955.77,774.99 937.72,809.13 927.52,808.73 911.44,784.8 898.49,735.76 
878.48,721.63 869.06,723.6 858.14,769.34 1123.8,992.25 1134.68,984.89 1099.37,968.42 	"/>
<polygon id="falseWallSouth-3" class="st7" points="1123.8,992.25 858.14,769.34 833.75,767.93 825.12,760.48 820.41,762.44 820.81,792.25 812.1,820.94 
829.72,851.47 846.99,881.38 898.49,948.8 940.08,987.64 973.82,1002.94 997.36,1029.23 
1000.3,1043.35 1003.24,1057.48 1013.44,1073.96 1038.16,1081.02 1056.21,1079.84 1071.9,1073.96 1073.87,1066.11 1087.21,1048.85 
1088.77,1022.95 1106.82,1003.73 	"/>

	<polygon id="cielagoNorth-1" class="st8" points="692.19,752.87 655.03,963.62 667.79,965.28 678.78,955.86 707.42,955.47 772.96,997.05 729.92,752.94 692.25,752.94 	"/>
	<polygon id="cielagoNorth-0" class="st8" points="678.74,737.76 668.84,719.01 593.8,848.98 557.75,911.42 560.68,926.04 571.06,935.66 592.46,955.47 655.03,963.62 692.19,752.87 	"/>
	<polygon id="cielagoNorth-2" class="st8" points="846.99,881.38 829.72,851.47 812.1,820.94 760.6,731.74 730,752.94 729.92,752.94 772.96,997.05 792.95,984.89 818.84,943.7 832.97,929.97 	"/>

	<polygon id="cielagoDepression-1" class="st9" points="772.96,997.05 707.42,955.47 678.78,955.86 667.79,965.28 655.03,963.62 634.38,1080.68 676.95,1080.89 703.1,1081.02 756.85,1069.64 785.62,1068.84 	"/>
	<polygon id="cielagoDepression-0" class="st9" points="592.46,955.47 571.06,935.66 553.62,948.8 558.33,960.96 553.23,999.02 534,1022.95 531.26,1050.02 552.84,1064.15 580.3,1061.01 623.07,1080.63 634.38,1080.68 655.03,963.62 	"/>
	<polygon id="cielagoDepression-2" class="st9" points="772.96,997.05 785.62,1068.84 821.2,1051.98 848.27,1050.81 860.04,1025.31 843.76,1004.12 827.48,982.93 818.84,943.7 792.95,984.89 	"/>

	<path id="cielagoEast-2" class="st10" d="M846.99,881.38l-14.02,48.59l-14.12,13.73l8.63,39.23l16.28,21.19l16.28,21.19l-11.77,25.5l0.78,18.83 l19.22,34.13l2.75,37.66l-10.59,23.93l1.18,48.26l11.25,12.85c0.13-0.04,0.27-0.07,0.4-0.11c1.51-0.42,3.01-0.85,4.51-1.28 c0.62-0.18,1.24-0.35,1.86-0.53c1.52-0.44,3.04-0.89,4.55-1.35c0.6-0.18,1.2-0.35,1.79-0.53c1.53-0.46,3.05-0.93,4.57-1.41 c0.58-0.18,1.17-0.36,1.75-0.54c1.53-0.48,3.05-0.97,4.57-1.46c0.57-0.19,1.15-0.37,1.72-0.55c1.53-0.5,3.06-1.01,4.59-1.53 c0.56-0.19,1.12-0.37,1.67-0.56c1.53-0.52,3.05-1.05,4.58-1.58c0.55-0.19,1.11-0.38,1.66-0.58c1.52-0.53,3.03-1.08,4.55-1.63 c0.55-0.2,1.11-0.39,1.66-0.6c1.51-0.55,3.01-1.11,4.51-1.67c0.56-0.21,1.11-0.41,1.67-0.62c1.49-0.56,2.98-1.13,4.46-1.71 c0.56-0.22,1.12-0.43,1.68-0.65c1.47-0.57,2.94-1.16,4.4-1.74c0.57-0.23,1.14-0.45,1.71-0.68c1.45-0.58,2.89-1.17,4.33-1.77 c0.58-0.24,1.17-0.48,1.75-0.72c1.42-0.59,2.84-1.19,4.26-1.79c0.59-0.25,1.19-0.5,1.78-0.75c1.39-0.6,2.78-1.2,4.17-1.81 c0.62-0.27,1.24-0.54,1.85-0.81c1.37-0.6,2.73-1.21,4.09-1.83c0.63-0.28,1.26-0.56,1.89-0.85c1.34-0.61,2.67-1.22,4-1.84 c0.65-0.3,1.3-0.6,1.95-0.9c1.3-0.61,2.59-1.22,3.88-1.84c0.68-0.32,1.36-0.64,2.03-0.97c1.25-0.6,2.5-1.21,3.75-1.83 c0.71-0.35,1.42-0.69,2.13-1.04c1.21-0.6,2.41-1.2,3.62-1.81c0.74-0.37,1.49-0.74,2.23-1.12c1.16-0.59,2.31-1.18,3.46-1.78 c0.78-0.4,1.57-0.81,2.35-1.21c1.1-0.58,2.2-1.16,3.3-1.74c0.82-0.44,1.65-0.87,2.47-1.31c1.05-0.56,2.09-1.13,3.13-1.7 c0.87-0.47,1.74-0.94,2.61-1.42c0.99-0.55,1.98-1.1,2.97-1.65c0.91-0.51,1.82-1.01,2.72-1.52c0.94-0.53,1.88-1.07,2.82-1.61 c0.95-0.54,1.89-1.08,2.84-1.62c0.09-0.05,0.18-0.11,0.27-0.16L846.99,881.38z"/>
	<path id="cielagoEast-3" class="st10" d="M1060.92,1084.94l-4.71-5.1l-18.05,1.18l-24.72-7.06l-10.2-16.48l-2.94-14.12l-2.94-14.12l-23.54-26.29 l-33.74-15.3l-41.59-38.84l-51.5-67.42l0,0l165.38,286.45c0.72-0.42,1.44-0.84,2.16-1.26c1.08-0.63,2.16-1.26,3.24-1.9 c0.78-0.46,1.55-0.93,2.33-1.39c1.1-0.66,2.21-1.32,3.31-1.99c0.75-0.45,1.49-0.92,2.24-1.37c1.12-0.69,2.24-1.37,3.35-2.07 c0.72-0.45,1.44-0.91,2.17-1.36c1.13-0.71,2.26-1.42,3.39-2.14c0.71-0.45,1.41-0.91,2.12-1.36c1.13-0.73,2.26-1.45,3.39-2.19 c0.71-0.46,1.41-0.93,2.11-1.39c1.12-0.74,2.24-1.47,3.35-2.22c0.7-0.47,1.39-0.94,2.08-1.41c1.12-0.75,2.23-1.51,3.34-2.27 c0.69-0.47,1.37-0.95,2.06-1.42c1.11-0.77,2.22-1.53,3.32-2.3c0.69-0.48,1.37-0.97,2.05-1.45c0.84-0.6,1.69-1.2,2.53-1.8V1084.94z" />


	<path id="southMesa-4" class="st11" d="M1181.26,1022.73c0.67-0.84,1.33-1.68,2-2.52c0.96-1.21,1.92-2.43,2.88-3.65c0.7-0.9,1.4-1.79,2.1-2.7 c1.02-1.32,2.02-2.64,3.03-3.96c0.62-0.81,1.23-1.62,1.85-2.43c1.39-1.85,2.77-3.71,4.14-5.58c0.66-0.9,1.31-1.8,1.96-2.7 c0.89-1.23,1.78-2.46,2.66-3.7c0.66-0.93,1.33-1.86,1.99-2.8c1-1.42,1.99-2.84,2.98-4.27c0.73-1.06,1.46-2.11,2.19-3.18 c1.12-1.64,2.23-3.28,3.33-4.92c0.63-0.94,1.25-1.88,1.87-2.83c0.83-1.26,1.66-2.53,2.49-3.8c0.62-0.96,1.24-1.91,1.86-2.87 c1-1.56,2-3.13,2.99-4.71c0.71-1.13,1.42-2.26,2.12-3.4c0.96-1.54,1.91-3.09,2.85-4.64c0.59-0.97,1.18-1.95,1.76-2.93 c0.78-1.31,1.56-2.62,2.34-3.94c0.57-0.97,1.14-1.93,1.7-2.9c1.05-1.81,2.09-3.62,3.13-5.45c0.59-1.05,1.18-2.1,1.77-3.15 c0.84-1.51,1.68-3.01,2.51-4.53c0.55-1,1.09-2,1.64-3.01c0.74-1.36,1.47-2.73,2.19-4.09c0.52-0.97,1.03-1.94,1.55-2.92 c1.12-2.14,2.23-4.29,3.33-6.44c0.44-0.86,0.86-1.72,1.29-2.57c0.75-1.49,1.49-2.98,2.23-4.47c0.51-1.03,1.01-2.07,1.51-3.1 c0.68-1.41,1.36-2.82,2.03-4.23c0.46-0.98,0.93-1.95,1.39-2.93c1.03-2.19,2.04-4.39,3.05-6.59c0.42-0.93,0.84-1.87,1.26-2.81 c0.66-1.47,1.31-2.94,1.96-4.42c0.47-1.07,0.93-2.14,1.4-3.21c0.62-1.44,1.24-2.89,1.85-4.34c0.42-0.99,0.84-1.98,1.25-2.97 c0.93-2.23,1.84-4.47,2.75-6.72c0.4-1.01,0.8-2.02,1.2-3.03c0.57-1.45,1.15-2.91,1.71-4.37c0.43-1.11,0.85-2.22,1.27-3.33 c0.56-1.48,1.12-2.97,1.67-4.46c0.37-1,0.75-2,1.11-3c0.02-0.04,0.03-0.09,0.05-0.13l-61.13-22.25l-4.32,12.28l-9.42,28.64 l0.39,33.35l-23.15,41.59l-45.12,39.23l-10.88,7.36l48.83,40.98c0.75-0.89,1.5-1.78,2.24-2.68c0.61-0.74,1.23-1.47,1.84-2.22 C1178.24,1026.47,1179.75,1024.61,1181.26,1022.73z"/>
	<path id="southMesa-5" class="st11" d="M1242.96,666.71l-3.92,21.97l5.49,13.73l-2.75,4.71l3.92,12.55l-0.78,38.84l-10.2,18.83l-18.44,52.46 l61.13,22.25c0.8-2.19,1.58-4.4,2.36-6.6c0.37-1.05,0.73-2.1,1.09-3.15c0.51-1.47,1.01-2.94,1.5-4.41 c0.36-1.08,0.72-2.16,1.08-3.24c0.65-1.97,1.29-3.94,1.92-5.92c0.37-1.17,0.74-2.35,1.11-3.53c0.51-1.65,1.02-3.29,1.52-4.94 c0.33-1.09,0.66-2.19,0.98-3.28c0.47-1.57,0.92-3.15,1.37-4.73c0.28-0.97,0.56-1.94,0.84-2.91c0.66-2.33,1.3-4.67,1.93-7.02 c0.27-1.02,0.54-2.04,0.81-3.06c0.42-1.6,0.83-3.19,1.24-4.79c0.27-1.05,0.53-2.09,0.79-3.14c0.54-2.17,1.06-4.35,1.58-6.53 c0.22-0.95,0.44-1.9,0.66-2.86c0.44-1.89,0.86-3.78,1.28-5.67c0.23-1.03,0.45-2.05,0.67-3.08c0.38-1.77,0.75-3.55,1.12-5.32 c0.18-0.87,0.36-1.74,0.54-2.61c0.5-2.48,0.98-4.97,1.45-7.46c0.17-0.9,0.33-1.8,0.5-2.71c0.33-1.82,0.66-3.64,0.97-5.46 c0.16-0.95,0.33-1.9,0.49-2.85c0.42-2.48,0.82-4.95,1.21-7.44c0.08-0.55,0.16-1.09,0.25-1.64c0.34-2.24,0.67-4.47,0.99-6.72 c0.13-0.91,0.25-1.83,0.38-2.74c0.27-2.01,0.54-4.02,0.79-6.03c0.09-0.74,0.19-1.47,0.28-2.21c0.32-2.64,0.63-5.28,0.92-7.92 c0.08-0.75,0.16-1.51,0.24-2.27c0.22-2.06,0.42-4.12,0.62-6.18c0.08-0.84,0.16-1.69,0.24-2.53c0.25-2.71,0.48-5.42,0.69-8.15 c0.01-0.18,0.03-0.37,0.04-0.55c0.2-2.59,0.37-5.18,0.54-7.78c0.05-0.82,0.1-1.64,0.15-2.46c0.13-2.19,0.25-4.39,0.35-6.58 c0.03-0.64,0.07-1.28,0.1-1.93c0.13-2.76,0.23-5.52,0.32-8.29c0.02-0.65,0.04-1.31,0.05-1.96c0.06-2.22,0.11-4.45,0.15-6.68 c0.01-0.79,0.03-1.58,0.04-2.38c0.04-2.81,0.07-5.63,0.07-8.46h-54.16L1242.96,666.71z"/>
	<path id="southMesa-3" class="st11" d="M1123.8,992.25l-16.97,11.48l-18.05,19.22l-1.57,25.89l-13.34,17.26l-1.96,7.85l-15.69,5.89l4.71,5.1v51.59 c0.2-0.15,0.41-0.29,0.61-0.44c2.07-1.49,4.14-2.98,6.19-4.49c0.53-0.39,1.05-0.78,1.58-1.17c1.59-1.18,3.18-2.37,4.76-3.56 c0.75-0.57,1.5-1.14,2.25-1.71c1.45-1.11,2.9-2.23,4.34-3.35c0.66-0.51,1.32-1.02,1.98-1.54c1.99-1.56,3.98-3.14,5.95-4.73 c0.57-0.46,1.13-0.92,1.69-1.38c1.48-1.2,2.96-2.41,4.43-3.63c0.74-0.62,1.49-1.23,2.23-1.85c1.39-1.16,2.77-2.33,4.15-3.5 c0.64-0.55,1.29-1.09,1.93-1.64c1.91-1.64,3.81-3.29,5.7-4.95c0.6-0.53,1.19-1.06,1.78-1.58c1.37-1.22,2.74-2.44,4.1-3.67 c0.74-0.67,1.48-1.34,2.22-2.02c1.31-1.19,2.61-2.39,3.91-3.59c0.64-0.59,1.28-1.18,1.92-1.78c1.82-1.7,3.62-3.41,5.42-5.13 c0.63-0.6,1.25-1.21,1.88-1.82c1.26-1.22,2.51-2.44,3.76-3.67c0.74-0.73,1.48-1.46,2.22-2.2c1.22-1.22,2.44-2.44,3.65-3.66 c0.64-0.65,1.28-1.29,1.92-1.94c1.72-1.76,3.43-3.52,5.13-5.3c0.66-0.69,1.31-1.38,1.96-2.07c1.15-1.21,2.29-2.43,3.43-3.65 c0.74-0.79,1.47-1.59,2.21-2.38c1.14-1.23,2.26-2.47,3.39-3.71c0.64-0.7,1.28-1.4,1.91-2.1c1.62-1.81,3.24-3.63,4.84-5.46 c0.67-0.77,1.34-1.54,2-2.31c1.05-1.21,2.09-2.42,3.13-3.64c0.73-0.85,1.46-1.71,2.18-2.57c0.31-0.37,0.62-0.74,0.93-1.11 L1123.8,992.25z"/>

	<path id="cielagoSouth-1" class="st12" d="M785.62,1068.84L785.62,1068.84l-28.76,0.8l-53.75,11.38l-26.15-0.13l-17.27,18.7l-1.57,48.65l13.08,34.53 l-14.12,24.06l-0.35,39.22c0.33,0.03,0.65,0.06,0.98,0.09c0.7,0.06,1.4,0.12,2.09,0.18c1.48,0.13,2.97,0.25,4.46,0.36 c0.81,0.06,1.63,0.12,2.44,0.18c1.38,0.1,2.76,0.2,4.14,0.29c0.93,0.06,1.86,0.11,2.79,0.17c1.28,0.08,2.56,0.16,3.84,0.23 c1.04,0.06,2.08,0.1,3.11,0.16c1.18,0.06,2.36,0.12,3.54,0.17c1.14,0.05,2.29,0.09,3.43,0.13c1.09,0.04,2.18,0.09,3.27,0.12 c1.25,0.04,2.49,0.07,3.74,0.1c0.99,0.03,1.99,0.06,2.98,0.08c1.44,0.03,2.89,0.05,4.33,0.07c0.8,0.01,1.61,0.03,2.41,0.04 c2.25,0.02,4.51,0.04,6.77,0.04c3.12,0,6.23-0.03,9.33-0.08c0.71-0.01,1.42-0.02,2.13-0.03c3.04-0.06,6.07-0.13,9.09-0.23 c0.48-0.02,0.95-0.04,1.43-0.05c2.69-0.1,5.37-0.21,8.04-0.34c0.69-0.03,1.39-0.07,2.08-0.1c2.94-0.15,5.87-0.33,8.8-0.53 c0.74-0.05,1.47-0.1,2.21-0.16c2.52-0.18,5.03-0.37,7.54-0.58c0.62-0.05,1.24-0.1,1.86-0.15c2.86-0.25,5.72-0.52,8.57-0.81 c0.87-0.09,1.74-0.18,2.61-0.27c2.63-0.28,5.26-0.57,7.88-0.88c0.56-0.07,1.12-0.13,1.68-0.2c2.65-0.32,5.29-0.66,7.93-1.02 c0.89-0.12,1.77-0.24,2.65-0.36c2.8-0.39,5.59-0.79,8.37-1.22c0.63-0.1,1.27-0.2,1.9-0.3c2.42-0.38,4.83-0.77,7.23-1.18 c0.75-0.13,1.5-0.25,2.25-0.38c0.35-0.06,0.71-0.13,1.06-0.19L785.62,1068.84z"/>
	<path id="cielagoSouth-2" class="st12" d="M861.61,1213.63l-1.18-48.26l10.59-23.93l-2.75-37.66l-19.22-34.13l-0.78-18.83l-27.07,1.18l-35.58,16.85 l30.07,170.56c2.49-0.44,4.99-0.88,7.47-1.35c0.65-0.12,1.3-0.25,1.95-0.38c2.47-0.47,4.94-0.96,7.41-1.47 c0.61-0.12,1.22-0.25,1.82-0.37c2.92-0.61,5.82-1.23,8.72-1.88c0.53-0.12,1.05-0.24,1.58-0.36c2.63-0.6,5.25-1.21,7.87-1.84 c0.45-0.11,0.89-0.21,1.34-0.32c2.95-0.72,5.9-1.46,8.84-2.22c0.45-0.12,0.9-0.24,1.35-0.36c2.72-0.71,5.43-1.44,8.13-2.19 c0.23-0.06,0.46-0.12,0.69-0.19L861.61,1213.63z"/>

	<path id="meridian-1" class="st13" d="M657.07,1206.83l14.12-24.06l-13.08-34.53l1.57-48.65l17.27-18.7l-42.57-0.21l-27.99,158.73 c1.48,0.26,2.96,0.51,4.45,0.75c0.86,0.14,1.71,0.29,2.57,0.43c1.48,0.24,2.97,0.47,4.45,0.71c0.94,0.15,1.88,0.29,2.82,0.43 c1.46,0.22,2.92,0.44,4.39,0.65c0.97,0.14,1.95,0.27,2.92,0.41c2.44,0.34,4.89,0.66,7.35,0.97c1.18,0.15,2.36,0.3,3.54,0.44 c1.28,0.15,2.56,0.29,3.83,0.44c1.24,0.14,2.49,0.28,3.73,0.41c1.22,0.13,2.45,0.26,3.67,0.38c1.41,0.14,2.81,0.28,4.22,0.41 c0.79,0.07,1.58,0.15,2.37,0.22L657.07,1206.83z"/>
	<path id="meridian-0" class="st13" d="M634.38,1080.68l-11.32-0.06l-42.77-19.62l-27.46,3.14l-21.58-14.12l-33.22,32.3l-39.93,1.68l-48.39,83.82 c2.12,1.23,4.24,2.43,6.38,3.63c0.67,0.38,1.35,0.75,2.03,1.13c1.48,0.83,2.97,1.65,4.46,2.46c0.78,0.42,1.55,0.85,2.33,1.27 c1.45,0.78,2.9,1.56,4.36,2.33c0.74,0.39,1.49,0.79,2.23,1.18c1.75,0.92,3.52,1.83,5.28,2.73c0.43,0.22,0.85,0.44,1.28,0.66 c2.16,1.1,4.33,2.18,6.5,3.26c0.7,0.35,1.4,0.68,2.1,1.03c1.51,0.74,3.02,1.47,4.54,2.2c0.85,0.41,1.71,0.81,2.56,1.22 c1.4,0.66,2.8,1.32,4.2,1.97c0.87,0.4,1.74,0.81,2.62,1.21c1.51,0.69,3.03,1.37,4.54,2.05c0.74,0.33,1.48,0.67,2.22,0.99 c2.17,0.96,4.34,1.91,6.52,2.84c0.79,0.34,1.57,0.67,2.36,1c1.47,0.62,2.94,1.24,4.41,1.85c0.98,0.41,1.96,0.81,2.94,1.21 c1.3,0.53,2.61,1.06,3.91,1.58c1.02,0.41,2.05,0.82,3.07,1.22c1.31,0.52,2.63,1.03,3.95,1.53c0.99,0.38,1.99,0.77,2.99,1.15 c1.81,0.69,3.63,1.36,5.46,2.04c1.29,0.47,2.58,0.94,3.88,1.41c1.35,0.49,2.69,0.97,4.05,1.45c1.14,0.4,2.28,0.79,3.42,1.19 c1.18,0.41,2.36,0.81,3.54,1.21c1.19,0.4,2.38,0.8,3.58,1.2c1.14,0.38,2.28,0.75,3.42,1.12c1.21,0.39,2.43,0.79,3.64,1.18 c1.16,0.37,2.32,0.73,3.48,1.09c2.22,0.69,4.44,1.37,6.67,2.03c1.09,0.33,2.18,0.65,3.27,0.97c1.32,0.39,2.65,0.76,3.97,1.14 c1.03,0.29,2.07,0.59,3.1,0.88c1.35,0.38,2.7,0.75,4.05,1.11c1,0.27,2.01,0.54,3.01,0.81c1.39,0.37,2.78,0.74,4.17,1.09 c0.91,0.23,1.82,0.46,2.73,0.69c3.31,0.84,6.62,1.65,9.95,2.43c0.27,0.06,0.53,0.13,0.79,0.19c1.51,0.35,3.03,0.69,4.55,1.03 c0.88,0.2,1.77,0.4,2.65,0.59c1.49,0.33,2.98,0.65,4.47,0.96c0.9,0.19,1.8,0.38,2.7,0.57c1.51,0.31,3.03,0.63,4.55,0.93 c0.82,0.16,1.64,0.32,2.46,0.48c3.77,0.73,7.55,1.44,11.34,2.11L634.38,1080.68z"/>

	<polygon id="cielagoWest-17" class="st14" points="557.75,911.42 569.74,890.66 541.98,836.98 540.88,788.7 506.78,817.31 492.45,829.33 475.02,911.79 450.96,935.33 455.67,1014.84 467.7,1032.11 458.11,1084 557.75,911.42 	"/>
	<polygon id="cielagoWest-0" class="st14" points="553.23,999.02 558.33,960.96 553.62,948.8 571.06,935.66 560.68,926.04 557.75,911.42  458.11,1084 498.04,1082.33 531.26,1050.02 534,1022.95 	"/>

	<polygon id="windPassNorth-17" class="st15" points="668.84,719.01 652.88,721.89 652.27,721.65 650.93,721.87 630.85,713.21  540.88,788.7 541.98,836.98 569.74,890.66 593.8,848.98 	"/>
	<polygon id="windPassNorth-16" class="st15" points="630.85,713.21 614.32,698.88 605.8,696.89 598.21,686.98 574.38,695.65 540.88,788.7 	"/> <rect x="573.62" y="691.32" transform="matrix(0.9397 -0.342 0.342 0.9397 -201.0867 242.2168)" class="st15" width="25.36" height="0"/>

	<path id="sihayaRidge-8" class="st16" d="M1076.73,230.41l-10.98,20.27l0,0l0,0l0.42,25.34l-5.57,7.41l-5.57,7.41l0,0l40.28-4.25l0.18,0.05l1.13-0.12 l30.81,9.99l0,0l45.21-37.93c-2.06-2.45-4.15-4.88-6.24-7.3c-0.41-0.48-0.83-0.96-1.24-1.43c-2.05-2.34-4.11-4.67-6.19-6.99 c-0.36-0.4-0.72-0.8-1.08-1.2c-2.03-2.24-4.07-4.47-6.13-6.68c-0.18-0.19-0.36-0.39-0.54-0.59c-2.18-2.33-4.39-4.65-6.61-6.95 c-0.41-0.42-0.81-0.84-1.22-1.26c-2.23-2.3-4.48-4.58-6.74-6.84c-0.2-0.2-0.4-0.39-0.6-0.59c-2.22-2.21-4.46-4.4-6.71-6.57 c-0.25-0.24-0.5-0.49-0.76-0.73c-2.33-2.24-4.68-4.46-7.05-6.67c-0.36-0.33-0.71-0.66-1.07-0.99c-2.42-2.24-4.86-4.47-7.31-6.67 L1076.73,230.41z"/>

	<polygon id="holeInTheRock-8" class="st17" points="952.97,304.33 952.12,312.36 942.83,312.36 942.41,319.11 924.24,330.1 925.93,338.54 895.1,360.51 870.61,424.95 881.23,424.24 967.54,373.63 985.98,371.66 1026,340.67 1025.61,326.94 1055.03,290.84 1060.6,283.44 1066.17,276.03 1065.74,250.69 1045.05,252.38 1018.44,268.85 1004.92,269.69 980,281.94 966.06,279.83 	"/>

	<path id="basin-8" class="st18" d="M1015.9,186.91l-25.77,13.52l0,0l-0.42,25.77l-10.14,13.52l-2.53,12.67l-2.53,12.67l-4.22,7.39l-4.22,7.39 l13.94,2.11l24.92-12.25l13.52-0.84l26.61-16.47l20.7-1.69l10.98-20.27l36.4-33.29c-2.44-2.18-4.89-4.34-7.36-6.49 c-0.33-0.29-0.66-0.58-0.99-0.86c-2.43-2.1-4.89-4.19-7.35-6.25c-0.3-0.25-0.6-0.5-0.91-0.75c-2.45-2.04-4.92-4.07-7.4-6.07 c-0.1-0.08-0.19-0.16-0.29-0.24c-2.52-2.03-5.07-4.04-7.62-6.03c-0.42-0.32-0.83-0.65-1.25-0.97c-2.55-1.98-5.11-3.94-7.69-5.87 c-0.16-0.12-0.31-0.23-0.47-0.35c-2.49-1.87-5-3.71-7.52-5.54c-0.36-0.26-0.71-0.52-1.07-0.78c-2.57-1.86-5.16-3.69-7.77-5.51 c-0.43-0.3-0.85-0.59-1.28-0.89c-2.66-1.84-5.33-3.67-8.02-5.48L1015.9,186.91z"/>

	<polygon id="rimWallWest-8" class="st19" points="895.94,344.04 890.45,352.91 895.1,360.51 925.93,338.54 924.24,330.1 942.41,319.11 942.83,312.36 952.12,312.36 952.97,304.33 966.06,279.83 970.28,272.44 974.51,265.05 977.04,252.38 979.58,239.7 989.71,226.19 990.14,200.42 982.96,197.04 973.24,207.18 964.38,207.12 892.84,331.04 	"/>

	<polygon id="arrakeen-9" class="st20" points="859.19,147.62 865.95,172.12 864.69,182.26 846.52,216.47 831.74,231.68 833.43,251.53 867.22,277.3 876.94,299.26 893.83,296.73 909.07,302.91 964.38,207.12 964.79,182.68 933.11,146.78 899.32,136.22 861.73,138.75 	"/>

	<path id="oldGap-8" class="st21" d="M964.38,207.12l8.86,0.06l9.71-10.14l0,0l0,0l7.18,3.38l25.77-13.52l30.23-41.86 c-2.35-1.57-4.71-3.12-7.08-4.67c-0.51-0.33-1.03-0.66-1.54-1c-1.98-1.28-3.98-2.55-5.97-3.81c-0.43-0.27-0.85-0.54-1.28-0.81 c-2.39-1.49-4.78-2.97-7.19-4.43c-0.34-0.21-0.68-0.41-1.02-0.61c-2.08-1.25-4.16-2.49-6.25-3.72c-0.57-0.33-1.14-0.67-1.71-1 c-0.57-0.33-1.15-0.66-1.72-0.99L964.38,207.12z"/>
	<path id="oldGap-9" class="st21" d="M807.75,97.45l25.67,20.18l14.78,1.27l13.52,19.85l37.59-2.53l33.79,10.56l31.68,35.9l-0.41,24.44l0,0 l47.98-83.11c-4.25-2.46-8.53-4.88-12.84-7.23c-0.58-0.32-1.16-0.63-1.74-0.94c-2.09-1.13-4.18-2.25-6.28-3.36 c-0.41-0.21-0.81-0.43-1.22-0.65c-2.45-1.28-4.9-2.54-7.37-3.79c-0.55-0.28-1.11-0.56-1.66-0.83c-2-1.01-4.01-2-6.02-2.98 c-0.62-0.31-1.25-0.61-1.87-0.92c-2.46-1.19-4.93-2.37-7.4-3.53c-0.41-0.19-0.83-0.38-1.25-0.58c-2.1-0.98-4.21-1.94-6.32-2.89 c-0.74-0.33-1.48-0.67-2.23-1c-2.23-0.99-4.47-1.98-6.71-2.95c-0.3-0.13-0.6-0.27-0.91-0.4c-2.46-1.06-4.94-2.09-7.42-3.12 c-0.81-0.33-1.61-0.66-2.42-0.99c-1.9-0.78-3.81-1.54-5.73-2.3c-0.71-0.28-1.42-0.57-2.13-0.84c-2.44-0.96-4.89-1.9-7.35-2.82 c-0.82-0.31-1.64-0.61-2.47-0.92c-1.81-0.67-3.62-1.33-5.43-1.99c-0.91-0.33-1.81-0.66-2.72-0.98c-2.43-0.86-4.87-1.72-7.32-2.55 c-0.75-0.26-1.51-0.51-2.27-0.76c-1.85-0.62-3.7-1.24-5.56-1.84c-1.02-0.33-2.04-0.66-3.07-0.99c-1.87-0.6-3.74-1.18-5.61-1.76 c-0.99-0.3-1.97-0.61-2.96-0.91c-2.2-0.67-4.4-1.32-6.61-1.96c-1.08-0.32-2.17-0.62-3.26-0.93c-1.65-0.47-3.3-0.93-4.95-1.38 c-1.04-0.29-2.09-0.58-3.13-0.86c-2.4-0.65-4.81-1.28-7.22-1.9c-1.11-0.28-2.22-0.56-3.33-0.84c-1.58-0.4-3.17-0.79-4.76-1.17 c-1.18-0.28-2.36-0.57-3.54-0.85c-2.07-0.49-4.15-0.96-6.22-1.43c-1.39-0.31-2.79-0.61-4.18-0.91c-1.63-0.35-3.26-0.7-4.89-1.04 c-1.25-0.26-2.5-0.51-3.75-0.77c-1.62-0.32-3.24-0.64-4.86-0.95c-1.57-0.3-3.15-0.6-4.72-0.89c-1.66-0.3-3.31-0.6-4.97-0.89 L807.75,97.45z"/>
	<path id="oldGap-10" class="st21" d="M766.69,69.9l-14.36,21.52l18.59-3.36l36.84,9.39l0,0l7.94-45.03c-0.28-0.05-0.57-0.1-0.85-0.15 c-1.22-0.21-2.44-0.42-3.66-0.62c-1.61-0.27-3.23-0.53-4.84-0.79c-1.12-0.18-2.24-0.36-3.36-0.53c-2.43-0.37-4.86-0.73-7.3-1.07 c-1.14-0.16-2.28-0.31-3.42-0.47c-1.77-0.24-3.55-0.47-5.32-0.69c-1-0.13-2.01-0.26-3.01-0.38c-2.57-0.31-5.14-0.6-7.72-0.88 c-0.94-0.1-1.89-0.2-2.84-0.29c-2.06-0.21-4.12-0.41-6.19-0.6c-0.56-0.05-1.12-0.11-1.68-0.16L766.69,69.9z"/>

	<polygon id="imperialBasin-8" class="st22" points="763.32,582.51 763.52,570.97 790.59,544.69 799.62,524.29 838.85,476.81 836.5,469.36 863.57,425.42 870.61,424.95 895.1,360.51 890.45,352.91 895.94,344.04 892.84,331.04 745.44,586.34 755.09,586.2 	"/>
	<polygon id="imperialBasin-9" class="st22" points="731.15,531.91 723.73,573.97 736.08,586.48 745.44,586.34 892.84,331.04 909.07,302.91 893.83,296.73 876.94,299.26 867.22,277.3 833.43,251.53 831.74,231.68 846.52,216.47 864.69,182.26 865.95,172.12 859.19,147.62 861.73,138.75 848.21,118.9 833.43,117.63 807.75,97.45 731.15,531.91 	"/>
	<polygon id="imperialBasin-10" class="st22" points="753.17,189.86 741.35,201.27 752.33,221.12 752.75,265.89 727.41,325.87 718.12,390.08 724.45,409.93 723.18,457.24 729.1,463.57 727.41,519.75 731.15,531.91 807.75,97.45 774.72,140.02 	"/>

	<polygon id="carthag-10" class="st23" points="661.51,315.31 678.41,332.63 698.26,325.45 727.41,325.87 752.75,265.89 752.33,221.12 741.35,201.27 701.22,194.51 679.68,205.91 635.78,219.08 652.69,314.95 	"/>

	<polygon id="tsimpo-12" class="st24" points="498.47,330.52 512.49,302 493.46,269.05 462.57,322.49 466.74,329.02 472.28,337.7 	"/>
	<polygon id="tsimpo-11" class="st24" points="565.21,170.85 558.45,173.81 541.98,210.98 534.37,212.25 530.15,222.39 516.21,233.79 509.88,243.08 497.2,249 493.46,269.05 512.49,302 555.07,268.43 593.93,261.67 602.8,267.58 641.18,249.7 635.78,219.08 617.72,116.63 567.74,136.64 564.79,145.51 	"/>
	<polygon id="tsimpo-10" class="st24" points="635.78,219.08 679.68,205.91 701.22,194.51 741.35,201.27 753.17,189.86 774.72,140.02 807.75,97.45 770.91,88.07 752.33,91.42 744.09,92.91 735.86,94.4 723.61,107.92 673.76,104.96 645.74,110.79 617.72,116.63 	"/>

	<path id="brokenLand-11" class="st25" d="M452.85,161.98l52.38,1.69l23.65-22.39l38.86-4.65l49.97-20.02l-11.32-64.2c-1,0.18-2,0.35-3,0.53 c-1.54,0.28-3.09,0.56-4.63,0.85c-2.12,0.4-4.23,0.81-6.34,1.23c-1.29,0.26-2.58,0.52-3.87,0.79c-1.6,0.33-3.2,0.67-4.79,1.01 c-1.18,0.25-2.37,0.5-3.54,0.76c-2.44,0.54-4.87,1.1-7.29,1.67c-1.21,0.28-2.41,0.57-3.62,0.87c-1.66,0.4-3.31,0.81-4.96,1.22 c-1.12,0.28-2.23,0.55-3.35,0.84c-2.45,0.63-4.9,1.27-7.33,1.93c-1.11,0.3-2.22,0.61-3.33,0.91c-1.73,0.48-3.45,0.96-5.17,1.45 c-1.04,0.3-2.08,0.59-3.12,0.9c-2.47,0.72-4.93,1.46-7.39,2.21c-1,0.31-2,0.62-2.99,0.93c-1.81,0.56-3.61,1.14-5.42,1.72 c-0.97,0.31-1.93,0.62-2.89,0.93c-2.49,0.82-4.97,1.65-7.44,2.49c-0.88,0.3-1.76,0.61-2.64,0.92c-1.89,0.66-3.78,1.32-5.66,2 c-0.89,0.32-1.78,0.64-2.67,0.96c-2.51,0.91-5.01,1.84-7.5,2.78c-0.75,0.28-1.5,0.58-2.25,0.86c-1.98,0.76-3.96,1.53-5.93,2.31 c-0.82,0.33-1.65,0.65-2.47,0.98c-2.52,1.01-5.03,2.04-7.54,3.08c-0.61,0.26-1.23,0.52-1.84,0.78c-2.07,0.87-4.13,1.75-6.19,2.65 c-0.76,0.33-1.53,0.66-2.29,1c-2.52,1.11-5.04,2.23-7.55,3.37c-0.47,0.21-0.93,0.43-1.4,0.65c-2.17,0.99-4.33,2-6.48,3.02 c-0.71,0.34-1.42,0.67-2.13,1.01c-2.52,1.21-5.04,2.43-7.54,3.67c-0.32,0.16-0.64,0.32-0.96,0.48c-2.26,1.13-4.51,2.27-6.76,3.42 c-0.67,0.34-1.34,0.69-2.01,1.03c-2.51,1.3-5.01,2.61-7.5,3.95c-0.16,0.09-0.33,0.18-0.49,0.27c-2.36,1.27-4.71,2.56-7.05,3.86 c-0.64,0.36-1.28,0.71-1.92,1.07c-2.48,1.39-4.96,2.79-7.42,4.21l16.84,29.17L452.85,161.98z"/>
	<path id="brokenLand-10" class="st25" d="M617.72,116.63L617.72,116.63l28.02-5.83l28.02-5.83l49.84,2.96l12.25-13.52l8.23-1.49l8.23-1.49l14.36-21.52 l-1.18-24.11c-0.32-0.03-0.64-0.06-0.96-0.09c-0.88-0.08-1.75-0.15-2.63-0.22c-1.31-0.11-2.61-0.22-3.92-0.32 c-0.99-0.08-1.99-0.15-2.99-0.22c-1.21-0.09-2.42-0.18-3.63-0.26c-1.08-0.07-2.17-0.13-3.26-0.2c-1.13-0.07-2.26-0.14-3.39-0.2 c-1.17-0.06-2.33-0.12-3.5-0.18c-1.06-0.05-2.12-0.11-3.18-0.16c-1.25-0.06-2.49-0.1-3.74-0.15c-0.99-0.04-1.98-0.08-2.97-0.11 c-1.34-0.04-2.69-0.08-4.03-0.11c-0.9-0.02-1.81-0.05-2.71-0.07c-1.48-0.03-2.97-0.05-4.46-0.07c-0.77-0.01-1.54-0.03-2.31-0.04 c-2.26-0.03-4.52-0.04-6.78-0.04c-3.04,0-6.08,0.03-9.11,0.08c-0.74,0.01-1.48,0.02-2.22,0.04c-2.98,0.05-5.95,0.13-8.91,0.22 c-0.39,0.01-0.78,0.03-1.17,0.04c-2.62,0.09-5.24,0.2-7.85,0.33c-0.83,0.04-1.66,0.08-2.49,0.12c-2.83,0.15-5.65,0.31-8.47,0.5 c-0.75,0.05-1.49,0.11-2.24,0.16c-2.23,0.16-4.45,0.32-6.67,0.5c-0.97,0.08-1.94,0.15-2.91,0.24c-2.66,0.23-5.31,0.47-7.95,0.73 c-1.04,0.1-2.07,0.21-3.11,0.32c-1.89,0.2-3.77,0.4-5.65,0.62c-1.12,0.13-2.23,0.25-3.35,0.38c-2.5,0.3-4.99,0.61-7.48,0.94 c-1.23,0.16-2.46,0.33-3.69,0.5c-1.66,0.23-3.32,0.47-4.98,0.71c-1.2,0.18-2.41,0.35-3.61,0.53c-2.4,0.37-4.8,0.75-7.2,1.15 c-1.3,0.21-2.59,0.44-3.88,0.66c-0.57,0.1-1.15,0.2-1.72,0.3L617.72,116.63z"/>

	<polygon id="arsunt-11" class="st26" points="699.69,581.5 652.69,314.95 662.98,373.3 644.62,407.39 641.24,453.86 643.35,493.14 653.07,503.28 656.45,526.93 654.86,548.59 672.9,579.84 678.08,588.81 	"/>
	<polygon id="arsunt-10" class="st26" points="678.41,332.63 661.51,315.31 652.69,314.95 699.69,581.5 709.68,573.97 723.73,573.97 731.15,531.91 727.41,519.75 729.1,463.57 723.18,457.24 724.45,409.93 718.12,390.08 727.41,325.87 698.26,325.45 	"/>

	<polygon id="haggaBasin-12" class="st27" points="678.08,588.81 672.9,579.84 654.86,548.59 512.49,302 498.47,330.52 472.28,337.7 466.74,329.02 462.57,346.57 461.3,373.18 456.65,380.78 465.52,401.06 468.06,425.98 480.31,438.23 480.17,452.18 511.62,478.58 597.78,550.87 641.59,587.63 646.38,591.65 	"/>
	<polygon id="haggaBasin-11" class="st27" points="656.45,526.93 653.07,503.28 643.35,493.14 641.24,453.86 644.62,407.39 662.98,373.3 652.69,314.95 641.18,249.7 602.8,267.58 593.93,261.67 555.07,268.43 512.49,302 654.86,548.59 	"/>


	<polygon id="plasticBasin-12" class="st28" points="480.31,438.23 468.06,425.98 465.52,401.06 456.65,380.78 461.3,373.18 462.57,346.57 466.74,329.02 462.57,322.49 493.46,269.05 426.56,153.17 404.28,179.3 380.2,194.09 358.66,225.77 336.69,295.88 318.33,316.39 480.17,452.18 	"/>
	<polygon id="plasticBasin-11" class="st28" points="426.56,153.17 493.46,269.05 497.2,249 509.88,243.08 516.21,233.79 530.15,222.39 534.37,212.25 541.98,210.98 558.45,173.81 565.21,170.85 564.79,145.51 567.74,136.64 528.88,141.29 505.23,163.67 452.85,161.98 	"/>
	<polygon id="plasticBasin-13" class="st28" points="597.78,550.87 511.62,478.58 480.17,452.18 318.33,316.39 311.35,324.18 314.31,346.57 329.51,371.07 329.51,385.85 336.27,390.92 337.12,403.59 344.3,409.08 331.8,454.52 325.71,476.67 318.95,477.09 312.62,488.49 312.57,500.88 353.39,515.74 518.03,575.66 559.58,590.78 	"/>

	<polygon id="windPass-14" class="st29" points="618.57,613.16 619.37,612.55 559.58,590.78 552.44,619.89 523.67,645.91 599.84,645.91 	"/>
	<polygon id="windPass-16" class="st29" points="574.38,695.65 516.38,716.76 492.45,829.33 506.78,817.31 540.88,788.7 	"/>
	<polygon id="windPass-15" class="st29" points="574.38,695.65 598.21,686.98 593.6,681 599.84,645.91 523.67,645.91 517.39,671.68 516.38,716.76 	"/>
	<polygon id="windPass-13" class="st29" points="646.38,591.65 641.59,587.63 597.78,550.87 559.58,590.78 619.37,612.55 	"/>

	<path id="greatFlat-14" class="st30" d="M552.44,619.89l7.14-29.1l-41.56-15.12l-46.85-17.05l0.45,10.01l-43.94,9.42l-17.26-12.16l-44.73-4.71 l-63.95,13.73l-50.22,2.35l-38.45-10.59l-67.48-2.75l-28.66-19.03c-0.33,1.96-0.65,3.92-0.96,5.88c-0.02,0.13-0.04,0.26-0.06,0.39 c-0.29,1.86-0.58,3.73-0.86,5.6c-0.03,0.24-0.07,0.47-0.11,0.71c-0.26,1.79-0.52,3.58-0.76,5.37c-0.04,0.33-0.09,0.65-0.14,0.98 c-0.23,1.72-0.46,3.44-0.68,5.16c-0.05,0.41-0.11,0.82-0.16,1.24c-0.21,1.65-0.41,3.3-0.6,4.96c-0.06,0.49-0.11,0.98-0.17,1.46 c-0.18,1.59-0.36,3.18-0.53,4.77c-0.06,0.56-0.12,1.13-0.18,1.69c-0.16,1.53-0.31,3.06-0.46,4.6c-0.06,0.63-0.12,1.27-0.18,1.9 c-0.14,1.47-0.27,2.94-0.39,4.41c-0.06,0.71-0.12,1.42-0.18,2.13c-0.12,1.41-0.23,2.82-0.33,4.23c-0.06,0.78-0.11,1.57-0.17,2.35 c-0.1,1.35-0.19,2.7-0.28,4.05c-0.05,0.86-0.1,1.71-0.16,2.57c-0.08,1.29-0.15,2.58-0.22,3.87c-0.05,0.94-0.09,1.89-0.14,2.83 c-0.06,1.21-0.12,2.42-0.17,3.63c-0.04,1.05-0.08,2.1-0.12,3.15c-0.04,1.12-0.09,2.24-0.12,3.36c-0.04,1.18-0.07,2.36-0.1,3.54 c-0.03,1-0.06,2-0.08,3.01c-0.03,1.38-0.05,2.77-0.07,4.16c-0.01,0.81-0.03,1.61-0.04,2.42c-0.02,2.2-0.04,4.4-0.04,6.61h415.19 L552.44,619.89z"/>

	<path id="greaterFlat-15" class="st31" d="M134.99,736.54l51.4,9.42l46.69,2.35l45.9-11.38l50.61-3.14l27.86-4.71l18.05,5.1l27.86-0.78l28.28,14.21 l0.36-33.82l6.28-4.71l0.39-5.49l25.5-10.99l6.67-15.3l46.56-5.62l6.28-25.76H108.48c0,2.18,0.01,4.35,0.04,6.53 c0.01,0.75,0.02,1.49,0.03,2.24c0.02,1.42,0.04,2.84,0.07,4.26c0.02,0.9,0.05,1.81,0.07,2.71c0.03,1.26,0.06,2.51,0.1,3.76 c0.03,0.99,0.07,1.97,0.11,2.96c0.04,1.16,0.09,2.32,0.13,3.48c0.04,1.05,0.09,2.09,0.14,3.13c0.05,1.09,0.1,2.19,0.16,3.28 c0.06,1.09,0.12,2.18,0.18,3.26c0.06,1.04,0.12,2.08,0.19,3.11c0.07,1.13,0.15,2.26,0.22,3.39c0.07,0.98,0.14,1.96,0.21,2.95 c0.09,1.17,0.18,2.34,0.27,3.51c0.07,0.93,0.15,1.85,0.23,2.78c0.1,1.22,0.21,2.43,0.32,3.64c0.08,0.85,0.16,1.71,0.24,2.56 c0.12,1.28,0.24,2.56,0.37,3.84c0.08,0.74,0.16,1.49,0.23,2.23c0.14,1.38,0.29,2.75,0.44,4.13c0.06,0.55,0.13,1.1,0.19,1.65 c0.84,7.31,1.81,14.57,2.9,21.8c0.06,0.37,0.11,0.74,0.17,1.11c0.23,1.47,0.46,2.93,0.7,4.39c0.08,0.49,0.16,0.99,0.24,1.48 L134.99,736.54z"/>

	<polygon id="falseWallWest-17" class="st32" points="475.02,911.79 492.45,829.33 386.17,918.52 407.28,964.1 411.2,1000.98 434.74,1015.1 455.67,1014.84 450.96,935.33 	"/>
	<polygon id="falseWallWest-16" class="st32" points="492.45,829.33 516.38,716.76 431.63,747.61 433.96,771.07 394.72,813.44 385.31,843.26 396.29,858.95 397.08,880.14 386.09,890.34 386.17,918.52 492.45,829.33 	"/>
	<polygon id="falseWallWest-15" class="st32" points="517.39,671.68 470.84,677.3 464.17,692.6 438.66,703.59 438.27,709.08 431.99,713.79  431.63,747.61 516.38,716.76 	"/>

	<path id="habbanyaRidgeFlat-17" class="st33" d="
	M467.7,1032.11	l-12.03-17.26
	l-20.92,0.26
	l-23.54-14.12
	l-3.92-36.88
	l-21.11-45.58
	l-136.71,114.72
		c0.02,0.02,0.04,0.05,0.06,0.07
		c1.2,1.43,2.41,2.85,3.62,4.27
		c0.21,0.24,0.42,0.49,0.63,0.73c1.21,1.41,2.44,2.82,3.67,4.22 c0.21,0.24,0.42,0.49,0.64,0.73c1.24,1.41,2.48,2.81,3.73,4.21c0.21,0.23,0.41,0.47,0.62,0.7c1.24,1.38,2.49,2.75,3.74,4.12 c0.23,0.25,0.45,0.5,0.67,0.74c1.25,1.36,2.51,2.72,3.77,4.07c0.23,0.25,0.46,0.49,0.69,0.74c1.27,1.36,2.55,2.7,3.83,4.05 c0.23,0.24,0.45,0.48,0.68,0.71c1.27,1.33,2.55,2.65,3.84,3.96c0.24,0.25,0.49,0.5,0.73,0.75c1.28,1.31,2.57,2.6,3.86,3.9 c0.25,0.25,0.5,0.51,0.76,0.76c1.28,1.28,2.57,2.55,3.86,3.82c0.27,0.26,0.54,0.53,0.81,0.8c1.29,1.26,2.59,2.52,3.89,3.77
		c0.27,0.26,0.54,0.53,0.82,0.79c1.3,1.24,2.6,2.47,3.91,3.7c0.29,0.27,0.57,0.54,0.86,0.81c1.29,1.21,2.58,2.4,3.88,3.6
		c0.31,0.29,0.62,0.58,0.94,0.87c1.29,1.18,2.59,2.36,3.89,3.53c0.33,0.29,0.65,0.59,0.97,0.88c1.28,1.15,2.57,2.29,3.87,3.43
		c0.35,0.31,0.7,0.62,1.04,0.93c1.27,1.12,2.56,2.23,3.84,3.34c0.37,0.32,0.74,0.65,1.12,0.97c1.27,1.09,2.54,2.16,3.81,3.24
		c0.4,0.34,0.79,0.68,1.19,1.01c1.26,1.06,2.53,2.11,3.8,3.16c0.42,0.34,0.83,0.69,1.25,1.04c1.24,1.02,2.49,2.03,3.74,3.04
		c0.45,0.37,0.9,0.74,1.35,1.1c1.24,0.99,2.48,1.98,3.72,2.96c0.47,0.37,0.94,0.75,1.42,1.13c1.24,0.98,2.49,1.94,3.74,2.91
		c0.48,0.37,0.96,0.75,1.44,1.12c1.21,0.93,2.42,1.85,3.64,2.77c0.53,0.4,1.06,0.81,1.6,1.21c1.18,0.88,2.36,1.76,3.54,2.63
		c0.58,0.43,1.15,0.86,1.73,1.29c1.18,0.87,2.37,1.72,3.56,2.58c0.59,0.42,1.17,0.85,1.76,1.28c1.2,0.86,2.41,1.72,3.62,2.57
		c0.58,0.41,1.16,0.82,1.74,1.23c1.18,0.83,2.37,1.65,3.56,2.47c0.62,0.43,1.23,0.86,1.85,1.28c1.12,0.77,2.25,1.53,3.38,2.29
		c0.69,0.47,1.38,0.94,2.07,1.4c1.12,0.75,2.26,1.5,3.39,2.24c0.7,0.46,1.4,0.93,2.1,1.39c1.22,0.8,2.45,1.58,3.67,2.37
		c0.62,0.4,1.23,0.8,1.85,1.2c1.23,0.79,2.47,1.56,3.7,2.34c0.62,0.39,1.24,0.79,1.87,1.18c1.17,0.73,2.34,1.44,3.51,2.16
		c0.7,0.43,1.4,0.87,2.1,1.29c1.39,0.85,2.79,1.68,4.18,2.51c0.49,0.29,0.97,0.59,1.46,0.88c1.89,1.12,3.79,2.23,5.69,3.34
		l48.39-83.82L467.7,1032.11z"/>
	<path id="habbanyaRidgeFlat-16" class="st33" d="M386.17,918.52L386.17,918.52l-0.07-28.18l10.99-10.2l-0.78-21.19l-10.99-15.69l-23.93-7.85l-27.46-14.12
		l-15.69,0.78l-12.16-13.34l-29.08-4.83l-132.3,48.15c0.76,2.09,1.53,4.17,2.31,6.25c0.19,0.51,0.39,1.03,0.59,1.54
		c0.59,1.56,1.18,3.12,1.79,4.67c0.36,0.92,0.72,1.83,1.08,2.74c0.45,1.15,0.9,2.29,1.36,3.44c0.43,1.07,0.88,2.14,1.31,3.21
		c0.4,0.98,0.79,1.95,1.2,2.93c0.48,1.16,0.98,2.32,1.47,3.48c0.37,0.87,0.73,1.75,1.11,2.63c0.53,1.23,1.07,2.46,1.61,3.69
		c0.35,0.79,0.69,1.59,1.03,2.38c0.57,1.3,1.16,2.59,1.74,3.88c0.32,0.72,0.64,1.44,0.96,2.15c0.61,1.34,1.23,2.68,1.85,4.02
		c0.31,0.66,0.61,1.32,0.92,1.98c0.64,1.37,1.29,2.73,1.95,4.1c0.3,0.62,0.59,1.25,0.89,1.87c0.69,1.43,1.38,2.84,2.08,4.26
		c0.27,0.55,0.54,1.11,0.81,1.66c0.73,1.48,1.48,2.95,2.22,4.43c0.25,0.49,0.49,0.98,0.73,1.46c0.76,1.5,1.54,2.99,2.31,4.49
		c0.24,0.46,0.47,0.91,0.71,1.37c0.8,1.53,1.61,3.06,2.43,4.58c0.22,0.41,0.43,0.82,0.65,1.23c0.83,1.55,1.67,3.09,2.52,4.63
		c0.21,0.38,0.42,0.77,0.63,1.15c0.87,1.59,1.76,3.17,2.65,4.75c0.19,0.33,0.37,0.66,0.55,0.99c0.92,1.62,1.85,3.24,2.78,4.85
		c0.16,0.28,0.32,0.56,0.48,0.84c0.93,1.6,1.87,3.2,2.81,4.8c0.17,0.29,0.34,0.58,0.51,0.87c0.97,1.63,1.95,3.25,2.93,4.87
		c0.15,0.25,0.3,0.5,0.45,0.75c1,1.64,2.01,3.27,3.02,4.9c0.14,0.23,0.28,0.45,0.42,0.68c1.03,1.64,2.06,3.28,3.1,4.91
		c0.13,0.21,0.26,0.42,0.4,0.63c1.05,1.64,2.11,3.27,3.17,4.9c0.13,0.2,0.26,0.4,0.39,0.6c1.08,1.64,2.16,3.28,3.25,4.91
		c0.12,0.18,0.24,0.36,0.36,0.54c1.1,1.64,2.2,3.26,3.32,4.89c0.12,0.18,0.24,0.35,0.36,0.53c1.12,1.63,2.25,3.26,3.39,4.89
		c0.11,0.16,0.23,0.33,0.34,0.49c1.15,1.63,2.3,3.26,3.46,4.88c0.11,0.15,0.22,0.3,0.32,0.46c1.16,1.61,2.32,3.21,3.5,4.81
		c0.12,0.16,0.23,0.32,0.35,0.48c1.17,1.59,2.34,3.16,3.52,4.74c0.13,0.17,0.25,0.34,0.38,0.51c1.18,1.57,2.37,3.13,3.57,4.69
		c0.13,0.17,0.26,0.34,0.39,0.51c1.17,1.52,2.35,3.03,3.53,4.54c0.16,0.21,0.32,0.42,0.49,0.62c1.18,1.5,2.36,2.98,3.55,4.47
		c0.17,0.22,0.34,0.43,0.52,0.65c1.17,1.46,2.35,2.91,3.54,4.35c0.2,0.24,0.39,0.48,0.59,0.72c1.17,1.42,2.34,2.83,3.52,4.24
		c0.2,0.24,0.4,0.48,0.59,0.71L386.17,918.52z M255.83,856.99l34.53-10.59l35.31,7.85l5.49,16.87l0.78,17.26l26.9,53.06
		l-56.18,47.14l-49.97-55.48l-12.95-46.69L255.83,856.99z"/>
	
	<polygon id="habbanyaErg-16" class="st34" points="433.96,771.07 431.63,747.61 276.98,803.9 306.05,808.73 318.22,822.07 333.91,821.29 361.37,835.41 385.31,843.26 394.72,813.44 	"/>
	<path id="habbanyaErg-15" class="st34" d="M276.98,803.9l154.65-56.29l0,0l-28.28-14.21l-27.86,0.78l-18.05-5.1l-27.86,4.71l-50.61,3.14l-45.9,11.38 l-46.69-2.35l-51.4-9.42l-18.54,7.57c0.02,0.11,0.04,0.23,0.05,0.34c0.32,1.96,0.66,3.91,1,5.86c0.05,0.31,0.11,0.62,0.16,0.93 c1.21,6.88,2.54,13.72,3.99,20.52c0.04,0.19,0.08,0.37,0.12,0.56c0.43,2.02,0.87,4.04,1.32,6.05c0.13,0.56,0.26,1.12,0.38,1.68 c0.37,1.64,0.75,3.28,1.13,4.91c0.17,0.72,0.34,1.44,0.52,2.15c0.35,1.47,0.71,2.94,1.07,4.41c0.2,0.8,0.4,1.6,0.61,2.41 c0.35,1.38,0.7,2.76,1.06,4.14c0.22,0.85,0.45,1.69,0.67,2.54c0.35,1.32,0.7,2.65,1.06,3.97c0.24,0.88,0.48,1.76,0.72,2.63 c0.36,1.29,0.72,2.58,1.09,3.87c0.25,0.89,0.51,1.78,0.77,2.67c0.37,1.27,0.74,2.53,1.11,3.8c0.27,0.9,0.53,1.8,0.8,2.69 c0.38,1.26,0.77,2.52,1.16,3.77c0.27,0.89,0.55,1.78,0.83,2.66c0.4,1.27,0.81,2.54,1.22,3.81c0.28,0.86,0.55,1.73,0.84,2.59 c0.43,1.31,0.86,2.61,1.3,3.91c0.27,0.82,0.54,1.64,0.82,2.46c0.48,1.42,0.97,2.83,1.46,4.24c0.24,0.7,0.48,1.39,0.72,2.09 c0.74,2.1,1.49,4.19,2.25,6.28L276.98,803.9L276.98,803.9z"/>

	<path id="funeralPlain-14" class="st35" d="M145.59,563.91l67.48,2.75l38.45,10.59l50.22-2.35l63.95-13.73l44.73,4.71l17.26,12.16l43.94-9.42 l-0.45-10.01l-117.78-42.87l-40.83-14.86l-22.99,12.03l-29.03,3.92l-11.77-10.99l-18.44-9.02l-4.32-4.32l-35.7,11.38l-28.25,2.75 l-13.34-13.73l-20.01-2.35c-0.03,0.11-0.06,0.23-0.09,0.34c-0.54,2.03-1.07,4.06-1.59,6.1c-0.06,0.25-0.12,0.49-0.19,0.74 c-0.49,1.95-0.98,3.91-1.45,5.87c-0.07,0.3-0.15,0.61-0.22,0.91c-0.46,1.91-0.91,3.82-1.35,5.74c-0.08,0.34-0.15,0.68-0.23,1.01 c-0.43,1.89-0.86,3.79-1.27,5.69c-0.08,0.35-0.15,0.69-0.23,1.04c-0.41,1.91-0.82,3.82-1.21,5.73c-0.07,0.33-0.14,0.66-0.2,0.99 c-0.4,1.96-0.79,3.91-1.17,5.88c-0.05,0.28-0.11,0.57-0.17,0.85c-0.39,2.05-0.78,4.11-1.15,6.17c-0.03,0.19-0.07,0.37-0.1,0.56 c-0.4,2.24-0.8,4.48-1.18,6.73L145.59,563.91z"/>

	<path id="bightOfTheCliff-14" class="st36" d="M148.72,492.9l13.34,13.73l28.25-2.75l35.7-11.38l4.32,4.32l18.44,9.02l11.77,10.99l29.03-3.92l22.99-12.03 l-167.87-61.1c-0.91,2.5-1.82,4.99-2.69,7.51c-0.09,0.25-0.18,0.51-0.26,0.76c-2.37,6.82-4.62,13.7-6.75,20.63 c-0.03,0.11-0.07,0.21-0.1,0.32c-1.05,3.42-2.07,6.86-3.06,10.31c-0.07,0.24-0.14,0.48-0.21,0.72c-0.99,3.46-1.95,6.94-2.88,10.43 c-0.01,0.03-0.02,0.06-0.02,0.09L148.72,492.9z"/>
	<path id="bightOfTheCliff-13" class="st36" d="M312.57,500.88L312.57,500.88l0.05-12.38l6.34-11.4l6.76-0.42l6.09-22.15l-16.33-4.38l-24.33-0.78 l-29.03-14.52l-14.91,8.63l-13.34-2.35l-24.33-27.46l4.71-19.22l12.16-5.49L237,371.66l-0.39-10.99l2.35-3.53l-6.67-5.49 l-9.81,0.39l-23.26-24.27c-0.27,0.43-0.53,0.86-0.79,1.28c-1.38,2.22-2.74,4.45-4.09,6.7c-0.43,0.72-0.87,1.44-1.3,2.16 c-1.52,2.55-3.02,5.11-4.5,7.68c-0.45,0.78-0.9,1.56-1.34,2.34c-1.5,2.63-2.99,5.27-4.45,7.93c-0.3,0.54-0.59,1.09-0.89,1.63 c-1.33,2.44-2.65,4.89-3.95,7.35c-0.31,0.59-0.63,1.18-0.94,1.77c-1.44,2.74-2.85,5.5-4.25,8.27c-0.34,0.68-0.69,1.36-1.03,2.05 c-1.41,2.82-2.8,5.65-4.17,8.5c-0.21,0.44-0.42,0.89-0.63,1.33c-1.32,2.76-2.61,5.53-3.89,8.31c-0.17,0.38-0.35,0.75-0.52,1.13 c-1.36,2.98-2.69,5.97-3.99,8.97c-0.24,0.55-0.48,1.09-0.71,1.64c-1.31,3.03-2.6,6.07-3.87,9.13c-0.14,0.33-0.27,0.66-0.4,0.98 c-1.28,3.13-2.55,6.26-3.78,9.42c-0.05,0.12-0.1,0.24-0.14,0.36c-1.25,3.21-2.48,6.43-3.67,9.67c-0.15,0.41-0.31,0.83-0.46,1.24 c-0.26,0.72-0.51,1.44-0.77,2.16L312.57,500.88z"/>

	<polygon id="sietchTabr-13" class="st37" points="337.12,403.59 336.27,390.92 329.51,385.85 329.51,371.07 314.31,346.57 311.35,324.18 288.4,313.99 238.96,357.15 236.61,360.68 237,371.66 226.41,388.93 214.25,394.42 209.54,413.65 233.86,441.11 247.2,443.46 262.11,434.83 291.14,449.35 315.47,450.13 331.8,454.52 344.3,409.08 	"/>

	<path id="rockOutcroppings-12" class="st38" d="M318.33,316.39l18.36-20.5l21.96-70.12l21.54-31.68l24.08-14.78l22.29-26.13L409.72,124 c-2.39,1.38-4.77,2.79-7.14,4.2c-0.66,0.4-1.32,0.79-1.98,1.19c-1.9,1.15-3.8,2.3-5.69,3.47c-0.51,0.32-1.02,0.63-1.53,0.94 c-2.32,1.44-4.62,2.9-6.92,4.37c-0.55,0.35-1.1,0.71-1.65,1.07c-1.83,1.18-3.64,2.37-5.46,3.56c-0.65,0.43-1.3,0.86-1.95,1.29 c-2.27,1.51-4.53,3.03-6.78,4.58c-0.2,0.14-0.39,0.27-0.59,0.41c-2.07,1.42-4.12,2.86-6.17,4.31c-0.67,0.48-1.35,0.95-2.02,1.43 c-1.77,1.26-3.54,2.54-5.3,3.82c-0.5,0.36-1,0.72-1.5,1.09c-2.16,1.59-4.31,3.19-6.45,4.8c-0.61,0.46-1.22,0.93-1.83,1.39 c-1.63,1.24-3.25,2.49-4.87,3.74c-0.67,0.52-1.33,1.03-2,1.55c-2.09,1.64-4.18,3.29-6.24,4.95c-0.4,0.32-0.79,0.64-1.18,0.96 c-1.73,1.4-3.45,2.81-5.17,4.23c-0.71,0.59-1.42,1.18-2.13,1.77c-1.58,1.32-3.16,2.65-4.73,3.99c-0.53,0.45-1.07,0.9-1.6,1.36 c-1.97,1.69-3.94,3.4-5.89,5.12c-0.68,0.6-1.36,1.2-2.04,1.81c-1.41,1.25-2.81,2.51-4.21,3.78c-0.7,0.63-1.4,1.27-2.1,1.9 c-1.9,1.73-3.78,3.48-5.66,5.23c-0.56,0.52-1.11,1.05-1.66,1.58c-1.42,1.34-2.83,2.69-4.24,4.04c-0.75,0.72-1.5,1.45-2.24,2.17 c-1.38,1.34-2.74,2.68-4.11,4.04c-0.57,0.57-1.15,1.13-1.72,1.7c-1.78,1.78-3.55,3.58-5.31,5.38c-0.73,0.75-1.46,1.51-2.19,2.27 c-1.19,1.24-2.38,2.48-3.56,3.72c-0.73,0.77-1.46,1.53-2.18,2.3c-1.7,1.81-3.39,3.63-5.07,5.47c-0.66,0.72-1.31,1.44-1.96,2.16 c-1.17,1.28-2.33,2.57-3.48,3.87c-0.76,0.85-1.52,1.71-2.28,2.56c-1.19,1.35-2.37,2.7-3.55,4.06c-0.79,0.91-1.58,1.82-2.36,2.74 c-1.2,1.4-2.39,2.81-3.58,4.23L318.33,316.39z"/>
	<path id="rockOutcroppings-13" class="st38" d="M222.48,352.05l9.81-0.39l6.67,5.49l49.43-43.16l22.95,10.19l6.98-7.8l-68.87-57.79 c-0.2,0.24-0.4,0.47-0.6,0.71c-0.74,0.88-1.47,1.76-2.2,2.65c-1.03,1.25-2.06,2.5-3.08,3.76c-0.7,0.86-1.41,1.72-2.1,2.59 c-1.53,1.89-3.04,3.8-4.54,5.71c-0.67,0.86-1.34,1.72-2.01,2.58c-0.99,1.28-1.98,2.56-2.97,3.85c-0.72,0.94-1.43,1.87-2.14,2.81 c-1.14,1.5-2.26,3.02-3.38,4.53c-0.84,1.13-1.67,2.27-2.5,3.41c-1.08,1.48-2.16,2.97-3.23,4.46c-0.68,0.96-1.36,1.91-2.04,2.87 c-0.95,1.34-1.89,2.69-2.83,4.05c-0.61,0.88-1.22,1.75-1.82,2.63c-1.38,2.02-2.76,4.04-4.12,6.07c-0.62,0.92-1.23,1.85-1.84,2.78 c-0.9,1.37-1.8,2.74-2.69,4.11c-0.62,0.95-1.23,1.9-1.84,2.85c-1.3,2.03-2.6,4.07-3.88,6.12c-0.13,0.21-0.26,0.42-0.39,0.63 L222.48,352.05z"/>

	<polygon id="habbanyaSietch-16" class="st39" points="302.66,988.59 358.85,941.44 331.95,888.38 331.16,871.12 325.67,854.24 290.36,846.4 255.83,856.99 239.75,886.42 252.7,933.11 	"/>

	<polygon id="hargPass-4" class="st40" points="807.35,726.72 858.14,769.34 869.06,723.6 842.38,711.04 	"/>

	<polygon id="hargPass-3" class="st40" points="807.35,726.72 788.49,710.89 772.74,697.68 761.62,709.66 760.6,731.74 812.1,820.94 820.81,792.25 820.41,762.44 825.12,760.48 833.75,767.93 858.14,769.34 807.35,726.72 	"/>

	<path id="redChasm-6" class="st41" d="M1313.6,645.9c0-59.3-8.6-116.7-24.6-170.8l-39,40.2l-3.1,11l-19.6,14.9l-11,25.1l4.7,32.2l24.3,29h14.9 l-0.8,18.4H1313.6z"/>
</g>
</svg>
