<?xml version="1.0" encoding="utf-8"?>
<!-- Generator: Adobe Illustrator 26.2.1, SVG Export Plug-In . SVG Version: 6.00 Build 0)  -->
<svg version="1.1" id="Sectors" xmlns="http://www.w3.org/2000/svg" xmlns:xlink="http://www.w3.org/1999/xlink" x="0px" y="0px"
	 viewBox="0 0 1428 1294" style="enable-background:new 0 0 1428 1294;" xml:space="preserve">
<style type="text/css">
	.st0{fill:#F7FFF4;stroke:#000000;stroke-miterlimit:10;}
	.st1{fill:#1E1C20;stroke:#000000;stroke-miterlimit:10;}
	.st2{fill:#4142BF;stroke:#000000;stroke-miterlimit:10;}
	.st3{fill:#5CB47E;stroke:#000000;stroke-miterlimit:10;}
	.st4{fill:#1E9F7E;stroke:#000000;stroke-miterlimit:10;}
	.st5{fill:#1E467E;stroke:#000000;stroke-miterlimit:10;}
	.st6{fill:#D9FF7E;stroke:#000000;stroke-miterlimit:10;}
	.st7{fill:#565663;stroke:#000000;stroke-miterlimit:10;}
	.st8{fill:#1ECF7E;stroke:#000000;stroke-miterlimit:10;}
	.st9{fill:#FFFF7E;stroke:#000000;stroke-miterlimit:10;}
	.st10{fill:#F5217E;stroke:#000000;stroke-miterlimit:10;}
	.st11{fill:#00FFFF;stroke:#000000;stroke-miterlimit:10;}
	.st12{fill:#860000;stroke:#000000;stroke-miterlimit:10;}
	.st13{fill:#1EA9D0;stroke:#000000;stroke-miterlimit:10;}
	.st14{fill:#1EB2B1;stroke:#000000;stroke-miterlimit:10;}
	.st15{fill:#1EBA4C;stroke:#000000;stroke-miterlimit:10;}
	.st16{fill:#9D617E;stroke:#000000;stroke-miterlimit:10;}
	.st17{fill:#1EBABE;stroke:#000000;stroke-miterlimit:10;}
	.st18{fill:#43477E;stroke:#000000;stroke-miterlimit:10;}
	.st19{fill:#1E367E;stroke:#000000;stroke-miterlimit:10;}
	.st20{fill:#1EDFCE;stroke:#000000;stroke-miterlimit:10;}
	.st21{fill:#C43B7E;stroke:#000000;stroke-miterlimit:10;}
	.st22{fill:#9AB07E;stroke:#000000;stroke-miterlimit:10;}
	.st23{fill:#6A6A7E;stroke:#000000;stroke-miterlimit:10;}
	.st24{fill:#B0CFC6;stroke:#000000;stroke-miterlimit:10;}
	.st25{fill:#14187E;stroke:#000000;stroke-miterlimit:10;}
	.st26{fill:#A75351;stroke:#000000;stroke-miterlimit:10;}
	.st27{fill:#A7B025;stroke:#000000;stroke-miterlimit:10;}
	.st28{fill:#DF9761;stroke:#000000;stroke-miterlimit:10;}
	.st29{fill:#AEB687;stroke:#000000;stroke-miterlimit:10;}
	.st30{fill:#F0CC7E;stroke:#000000;stroke-miterlimit:10;}
	.st31{fill:#573F7E;stroke:#000000;stroke-miterlimit:10;}
	.st32{fill:#AAFF7E;stroke:#000000;stroke-miterlimit:10;}
	.st33{fill:#6D21A7;stroke:#000000;stroke-miterlimit:10;}
	.st34{fill:#561F5E;stroke:#000000;stroke-miterlimit:10;}
	.st35{fill:#1E90B7;stroke:#000000;stroke-miterlimit:10;}
	.st36{fill:#3F227E;stroke:#000000;stroke-miterlimit:10;}
	.st37{fill:#C8C7F9;stroke:#000000;stroke-miterlimit:10;}
	.st38{fill:#B1257E;stroke:#000000;stroke-miterlimit:10;}
	.st39{fill:#1EFF7E;stroke:#000000;stroke-miterlimit:10;}
	.st40{fill:#9DFF7E;stroke:#000000;stroke-miterlimit:10;}
</style>
<polygon id="polarSink" class="st0" points="730,752.9 760.6,731.7 761.6,709.7 772.7,697.7 783.7,672.3 802.2,645.9 808.6,610.4 787.7,581.6 
	763.3,582.5 755.1,586.2 736.1,586.5 723.7,574 709.7,574 699.7,581.5 678.1,588.8 646.4,591.7 618.6,613.2 599.8,645.9 593.6,681 
	598.2,687 605.8,696.9 614.3,698.9 630.8,713.2 650.9,721.9 668.8,719 678.7,737.8 692.2,752.9 "/>
<polygon id="falseWallEast" class="st1" points="763.3,582.5 787.7,581.6 808.6,610.4 802.2,645.9 783.7,672.3 772.7,697.7 807.3,726.7 842.4,711 
	860,667.9 859.7,652.6 864.3,645.9 862.2,590.9 840.7,560.2 830.5,545.7 799.6,524.3 790.6,544.7 763.5,571 "/>
<polygon id="minorErg" class="st2" points="840.7,560.2 862.2,590.9 864.3,645.9 859.7,652.6 860,667.9 842.4,711 869.1,723.6 878.5,721.6 
	898.5,735.8 911.4,784.8 927.5,808.7 937.7,809.1 955.8,775 948.1,732.2 980.1,645.9 989.1,604.7 986.4,551.4 972.2,518.4 
	970.7,482.7 954.2,489.4 945.6,500.4 935.4,505.1 927.9,522.3 912.6,520.8 879.3,532.9 871.8,544.3 "/>
<polygon id="shieldWall" class="st3" points="840.7,560.2 871.8,544.3 879.3,532.9 912.6,520.8 927.9,522.3 935.4,505.1 945.6,500.4 954.2,489.4 
	970.7,482.7 989.5,474.9 996.2,466.6 995.8,457.2 1007.2,454.5 1025.2,438.8 1037.4,406.2 1083.1,369.3 1106.4,350.5 1127.6,306.1 
	1127.4,296.5 1096.6,286.5 1055,290.8 1025.6,326.9 1026,340.7 986,371.7 967.5,373.6 881.2,424.2 870.6,425 863.6,425.4 
	836.5,469.4 838.8,476.8 799.6,524.3 830.5,545.7 "/>
<path id="pastyMesa" class="st4" d="M1168.4,820.5l12.6,13l31,8.6l22.8-64.7l10.2-18.8l0.8-38.8l-3.9-12.5l2.8-4.7l-5.5-13.7l3.9-22l16.5-20.8
	l0.8-18.4h-14.9l-24.3-29l-4.7-32.2l11-25.1l19.6-14.9l3.1-11l39-40.2c-8.7-29.3-19.5-57.7-32.2-84.9l-23.2,0.4l-8.6,6.3l-6.3-6.3
	l-25.9,16.5l-13.3-9.4l-37.7,10.2l-13.3-12.5l-30.6,0.8l-9.4-7.9l-5.3-18.8l-45.7,36.9l-12.2,32.6l-18,15.7l-11.4,2.8l0.4,9.4
	l-6.7,8.2l-18.8,7.9l1.6,35.7l14.1,33l2.8,53.4l-9,41.2l-32,86.3l7.7,42.8l31.8,26.7l17.7-2l35.3,21.2l15.7-1.2l36.9,28.6l22.4-38.5
	l23.2,7.1L1168.4,820.5z"/>
<path id="garKulon" class="st5" d="M1179.4,397.6l13.3,9.4l25.9-16.5l6.3,6.3l8.6-6.3l23.2-0.4c-22.3-47.6-50.7-91.8-84.2-131.6l-45.2,37.9
	l0.2,9.6l-21.2,44.3l-23.4,18.9l5.3,18.8l9.4,7.9l30.6-0.8l13.3,12.5L1179.4,397.6z"/>
<polygon id="tueksSietch" class="st6" points="1212,842.1 1181,833.5 1168.4,820.5 1138.6,817 1115.4,809.9 1093.1,848.4 1089.9,877 1098.6,913.1 
	1094.7,950 1099.4,968.4 1134.7,984.9 1179.8,945.7 1202.9,904.1 1202.6,870.7 "/>
<polygon id="falseWallSouth" class="st7" points="869.1,723.6 878.5,721.6 898.5,735.8 911.4,784.8 927.5,808.7 937.7,809.1 955.8,775 987.5,801.7 
	1005.2,799.7 1040.5,820.9 1056.2,819.7 1093.1,848.4 1089.9,877 1098.6,913.1 1094.7,950 1099.4,968.4 1134.7,984.9 1106.8,1003.7 
	1088.8,1023 1087.2,1048.8 1073.9,1066.1 1071.9,1074 1056.2,1079.8 1038.2,1081 1013.4,1074 1003.2,1057.5 997.4,1029.2 
	973.8,1002.9 940.1,987.6 898.5,948.8 847,881.4 812.1,820.9 820.8,792.2 820.4,762.4 825.1,760.5 833.8,767.9 858.1,769.3 "/>
<polygon id="cielagoNorth" class="st8" points="847,881.4 812.1,820.9 760.6,731.7 730,752.9 692.2,752.9 678.7,737.8 668.8,719 569.7,890.7 
	557.8,911.4 560.7,926 571.1,935.7 592.5,955.5 667.8,965.3 678.8,955.9 707.4,955.5 773,997 793,984.9 818.8,943.7 833,930 "/>
<polygon id="cielagoDepression" class="st9" points="818.8,943.7 793,984.9 773,997 707.4,955.5 678.8,955.9 667.8,965.3 592.5,955.5 571.1,935.7 
	553.6,948.8 558.3,961 553.2,999 534,1023 531.3,1050 552.8,1064.2 580.3,1061 623.1,1080.6 677,1080.9 703.1,1081 756.8,1069.6 
	785.6,1068.8 821.2,1052 848.3,1050.8 860,1025.3 827.5,982.9 "/>
<path id="cielagoEast" class="st10" d="M1038.2,1081l-24.7-7.1l-10.2-16.5l-5.9-28.2l-23.5-26.3l-33.7-15.3l-41.6-38.8L847,881.4L833,930l-14.1,13.7
	l8.6,39.2l32.6,42.4l-11.8,25.5l0.8,18.8l19.2,34.1l2.8,37.7l-10.6,23.9l1.2,48.3l11.2,12.9c68.3-19,131.8-49.8,188.1-89.9v-51.6
	l-4.7-5.1L1038.2,1081z"/>
<path id="cielagoSouth" class="st11" d="M868.3,1103.8l-19.2-34.1l-0.8-18.8l-27.1,1.2l-35.6,16.8l-28.8,0.8l-53.8,11.4l-26.2-0.1l-17.3,18.7
	l-1.6,48.7l13.1,34.5l-14.1,24.1l-0.3,39.2c17.9,1.6,36,2.4,54.3,2.4c56.1,0,110.3-7.7,161.8-22l-11.2-12.9l-1.2-48.3l10.6-23.9
	L868.3,1103.8z"/>
<path id="meridian" class="st12" d="M677,1080.9l-53.9-0.3l-42.8-19.6l-27.5,3.1l-21.6-14.1l-33.2,32.3l-39.9,1.7l-48.4,83.8
	c73.9,42.7,157.6,70.2,247,78.2l0.3-39.2l14.1-24.1l-13.1-34.5l1.6-48.7L677,1080.9z"/>
<polygon id="cielagoWest" class="st13" points="458.1,1084 467.7,1032.1 455.7,1014.8 451,935.3 475,911.8 492.5,829.3 540.9,788.7 542,837 
	569.7,890.7 557.8,911.4 560.7,926 571.1,935.7 553.6,948.8 558.3,961 553.2,999 534,1023 531.3,1050 498,1082.3 "/>
<polygon id="windPassNorth" class="st14" points="540.9,788.7 574.4,695.7 598.2,687 605.8,696.9 614.3,698.9 630.8,713.2 652.9,721.9 668.8,719 
	569.7,890.7 542,837 "/>
<path id="sihayaRidge" class="st15" d="M1113.1,197.1l-36.4,33.3l-11,20.3l0.4,25.3l-11.1,14.8l40.3-4.2l32.1,9.9l45.2-37.9
	C1154.3,236.7,1134.4,216.2,1113.1,197.1z"/>
<polygon id="holeInTheRock" class="st16" points="1065.7,250.7 1066.2,276 1055,290.8 1025.6,326.9 1026,340.7 986,371.7 967.5,373.6 881.2,424.2 
	870.6,425 895.1,360.5 925.9,338.5 924.2,330.1 942.4,319.1 942.8,312.4 952.1,312.4 953,304.3 966.1,279.8 980,281.9 1004.9,269.7 
	1018.4,268.9 1045.1,252.4 "/>
<path id="basin" class="st17" d="M1046.1,145.1l-30.2,41.9l-25.8,13.5l-0.4,25.8l-10.1,13.5l-5.1,25.3l-8.5,14.8L980,282l24.9-12.2l13.5-0.8
	l26.6-16.5l20.7-1.7l11-20.3l36.4-33.3C1092.1,178.3,1069.7,160.8,1046.1,145.1z"/>
<polygon id="rimWallWest" class="st18" points="895.1,360.5 925.9,338.5 924.2,330.1 942.4,319.1 942.8,312.4 952.1,312.4 953,304.3 966.1,279.8 
	974.5,265 979.6,239.7 989.7,226.2 990.1,200.4 983,197 973.2,207.2 964.4,207.1 909.1,302.9 892.8,331 895.9,344 890.5,352.9 "/>
<polygon id="arrakeen" class="st19" points="909.1,302.9 964.4,207.1 964.8,182.7 933.1,146.8 899.3,136.2 861.7,138.8 859.2,147.6 866,172.1 
	864.7,182.3 846.5,216.5 831.7,231.7 833.4,251.5 867.2,277.3 876.9,299.3 893.8,296.7 "/>
<path id="oldGap" class="st20" d="M765.5,45.8l1.2,24.1l-14.4,21.5l18.6-3.4l36.8,9.4l25.7,20.2l14.8,1.3l13.5,19.9l37.6-2.5l33.8,10.6
	l31.7,35.9l-0.4,24.4l8.9,0.1L983,197l7.2,3.4l25.8-13.5l30.2-41.9C964.5,90.3,868.8,55,765.5,45.8z"/>
<polygon id="imperialBasin" class="st21" points="807.8,97.4 833.4,117.6 848.2,118.9 861.7,138.8 859.2,147.6 866,172.1 864.7,182.3 846.5,216.5 
	831.7,231.7 833.4,251.5 867.2,277.3 876.9,299.3 893.8,296.7 909.1,302.9 892.8,331 895.9,344 890.5,352.9 895.1,360.5 870.6,425 
	863.6,425.4 836.5,469.4 838.8,476.8 799.6,524.3 790.6,544.7 763.5,571 763.3,582.5 755.1,586.2 736.1,586.5 723.7,574 
	731.2,531.9 727.4,519.8 729.1,463.6 723.2,457.2 724.5,409.9 718.1,390.1 727.4,325.9 752.8,265.9 752.3,221.1 741.3,201.3 
	753.2,189.9 774.7,140 "/>
<polygon id="carthag" class="st22" points="727.4,325.9 752.8,265.9 752.3,221.1 741.3,201.3 701.2,194.5 679.7,205.9 635.8,219.1 641.2,249.7 
	652.7,315 661.5,315.3 678.4,332.6 698.3,325.5 "/>
<polygon id="tsimpo" class="st23" points="641.2,249.7 635.8,219.1 679.7,205.9 701.2,194.5 741.3,201.3 753.2,189.9 774.7,140 807.8,97.4 
	770.9,88.1 752.3,91.4 735.9,94.4 723.6,107.9 673.8,105 617.7,116.6 567.7,136.6 564.8,145.5 565.2,170.9 558.5,173.8 542,211 
	534.4,212.2 530.2,222.4 516.2,233.8 509.9,243.1 497.2,249 493.5,269 462.6,322.5 466.7,329 472.3,337.7 498.5,330.5 512.5,302 
	555.1,268.4 593.9,261.7 602.8,267.6 "/>
<path id="brokenLand" class="st24" d="M409.7,124l16.8,29.2l26.3,8.8l52.4,1.7l23.6-22.4l38.9-4.6l50-20l56-11.7l49.8,3l12.2-13.5l16.5-3l14.4-21.5
	l-1.2-24.1c-17.9-1.6-36.1-2.4-54.5-2.4C601.3,43.3,498.4,72.7,409.7,124z"/>
<polygon id="arsunt" class="st25" points="652.7,315 661.5,315.3 678.4,332.6 698.3,325.5 727.4,325.9 718.1,390.1 724.5,409.9 723.2,457.2 
	729.1,463.6 727.4,519.8 731.2,531.9 723.7,574 709.7,574 699.7,581.5 678.1,588.8 654.9,548.6 656.5,526.9 653.1,503.3 
	643.3,493.1 641.2,453.9 644.6,407.4 663,373.3 "/>
<polygon id="haggaBasin" class="st26" points="678.1,588.8 654.9,548.6 656.5,526.9 653.1,503.3 643.3,493.1 641.2,453.9 644.6,407.4 663,373.3 
	652.7,315 641.2,249.7 602.8,267.6 593.9,261.7 555.1,268.4 512.5,302 498.5,330.5 472.3,337.7 466.7,329 462.6,346.6 461.3,373.2 
	456.6,380.8 465.5,401.1 468.1,426 480.3,438.2 480.2,452.2 597.8,550.9 646.4,591.7 "/>
<polygon id="plasticBasin" class="st27" points="597.8,550.9 480.2,452.2 480.3,438.2 468.1,426 465.5,401.1 456.6,380.8 461.3,373.2 462.6,346.6 
	466.7,329 462.6,322.5 493.5,269 497.2,249 509.9,243.1 516.2,233.8 530.2,222.4 534.4,212.2 542,211 558.5,173.8 565.2,170.9 
	564.8,145.5 567.7,136.6 528.9,141.3 505.2,163.7 452.9,162 426.6,153.2 404.3,179.3 380.2,194.1 358.7,225.8 336.7,295.9 
	311.4,324.2 314.3,346.6 329.5,371.1 329.5,385.9 336.3,390.9 337.1,403.6 344.3,409.1 331.8,454.5 325.7,476.7 319,477.1 
	312.6,488.5 312.6,500.9 471.2,558.6 559.6,590.8 "/>
<polygon id="windPass" class="st28" points="540.9,788.7 574.4,695.7 598.2,687 593.6,681 599.8,645.9 618.6,613.2 646.4,591.7 597.8,550.9 
	559.6,590.8 552.4,619.9 523.7,645.9 517.4,671.7 516.4,716.8 492.5,829.3 "/>
<path id="greatFlat" class="st29" d="M552.4,619.9l7.1-29.1l-88.4-32.2l0.5,10l-43.9,9.4l-17.3-12.2l-44.7-4.7l-64,13.7l-50.2,2.3l-38.4-10.6
	l-67.5-2.8l-28.7-19c-5.6,32.8-8.4,66.6-8.4,101h415.2L552.4,619.9z"/>
<path id="greaterFlat" class="st30" d="M135,736.5l51.4,9.4l46.7,2.3l45.9-11.4l50.6-3.1l27.9-4.7l18,5.1l27.9-0.8l28.3,14.2l0.4-33.8l6.3-4.7
	l0.4-5.5l25.5-11l6.7-15.3l46.6-5.6l6.3-25.8H108.5c0,33.4,2.7,66.2,8,98.2L135,736.5z"/>
<polygon id="falseWallWest" class="st31" points="431.6,747.6 432,713.8 438.3,709.1 438.7,703.6 464.2,692.6 470.8,677.3 517.4,671.7 516.4,716.8 
	492.5,829.3 475,911.8 451,935.3 455.7,1014.8 434.7,1015.1 411.2,1001 407.3,964.1 386.2,918.5 386.1,890.3 397.1,880.1 396.3,859 
	385.3,843.3 394.7,813.4 434,771.1 "/>
<path id="habbanyaRidgeFlat" class="st32" d="M434.7,1015.1l-23.5-14.1l-3.9-36.9l-21.1-45.6l-0.1-28.2l11-10.2l-0.8-21.2l-11-15.7l-23.9-7.8l-27.5-14.1
	l-15.7,0.8l-12.2-13.3l-29.1-4.8L144.7,852c48.7,133.8,143.4,245.4,265,315.8l48.4-83.8l9.6-51.9l-12-17.3L434.7,1015.1z"/>
<path id="habbanyaErg" class="st33" d="M403.4,733.4l-27.9,0.8l-18-5.1l-27.9,4.7l-50.6,3.1l-45.9,11.4l-46.7-2.3l-51.4-9.4l-18.5,7.6
	c6.1,37.2,15.6,73.3,28.2,107.9L277,803.9l29.1,4.8l12.2,13.3l15.7-0.8l27.5,14.1l23.9,7.8l9.4-29.8l39.2-42.4l-2.3-23.5
	L403.4,733.4z"/>
<path id="funeralPlain" class="st34" d="M312.6,500.9l-23,12l-29,3.9l-11.8-11l-18.4-9l-4.3-4.3l-35.7,11.4l-28.2,2.8l-13.3-13.7l-20-2.4
	c-4.7,17.8-8.7,35.9-11.8,54.3l28.7,19l67.5,2.8l38.4,10.6l50.2-2.3l64-13.7l44.7,4.7l17.3,12.2l43.9-9.4l-0.5-10L312.6,500.9z"/>
<path id="bightOfTheCliff" class="st35" d="M291.1,449.4l-29-14.5l-14.9,8.6l-13.3-2.4l-24.3-27.5l4.7-19.2l12.2-5.5l10.6-17.3l-0.4-11l2.4-3.5l-6.7-5.5
	l-9.8,0.4l-23.3-24.3c-31.1,49.9-55,104.6-70.5,162.8l20,2.4l13.3,13.7l28.2-2.8l35.7-11.4l4.3,4.3l18.4,9l11.8,11l29-3.9l23-12
	l0-12.4l6.3-11.4l6.8-0.4l6.1-22.1l-16.3-4.4L291.1,449.4z"/>
<polygon id="sietchTabr" class="st36" points="236.6,360.7 237,371.7 226.4,388.9 214.2,394.4 209.5,413.6 233.9,441.1 247.2,443.5 262.1,434.8 
	291.1,449.4 315.5,450.1 331.8,454.5 344.3,409.1 337.1,403.6 336.3,390.9 329.5,385.9 329.5,371.1 314.3,346.6 311.4,324.2 
	288.4,314 239,357.1 "/>
<path id="rockOutcroppings" class="st37" d="M199.2,327.8l23.3,24.3l9.8-0.4l6.7,5.5l49.4-43.2l23,10.2l25.3-28.3l22-70.1l21.5-31.7l24.1-14.8l22.3-26.1
	L409.7,124C323.9,173.6,251.5,243.8,199.2,327.8z"/>
<polygon id="habbanyaSietch" class="st38" points="302.7,988.6 358.9,941.4 332,888.4 331.2,871.1 325.7,854.2 290.4,846.4 255.8,857 239.8,886.4 
	252.7,933.1 "/>
<polygon id="hargPass" class="st39" points="760.6,731.7 812.1,820.9 820.8,792.2 820.4,762.4 825.1,760.5 833.8,767.9 858.1,769.3 869.1,723.6 
	842.4,711 807.3,726.7 772.7,697.7 761.6,709.7 "/>
<path id="redChasm" class="st40" d="M1313.6,645.9c0-59.3-8.6-116.7-24.6-170.8l-39,40.2l-3.1,11l-19.6,14.9l-11,25.1l4.7,32.2l24.3,29h14.9
	l-0.8,18.4H1313.6z"/>
<path id="southMesa" class="st41" d="M1259.4,645.9l-16.5,20.8l-3.9,22l5.5,13.7l-2.7,4.7l3.9,12.6l-0.8,38.8l-10.2,18.8l-22.8,64.7l-9.4,28.6
	l0.4,33.3l-23.1,41.6l-45.1,39.2l-27.9,18.8l-18,19.2l-1.6,25.9l-13.3,17.3l-2,7.8l-15.7,5.9l4.7,5.1v51.6
	c153-109.3,252.7-288.3,252.7-490.6H1259.4z"/>
</svg>
