<?xml version="1.0" encoding="utf-8"?>
<!-- Generator: Adobe Illustrator 26.2.1, SVG Export Plug-In . SVG Version: 6.00 Build 0)  -->
<svg version="1.1" id="Sectors" xmlns="http://www.w3.org/2000/svg" xmlns:xlink="http://www.w3.org/1999/xlink" x="0px" y="0px"
	 viewBox="0 0 1428 1294" style="enable-background:new 0 0 1428 1294;" xml:space="preserve">
<style type="text/css">
	.st0{fill:#595959;stroke:#000000;stroke-miterlimit:10;}
	.st1{fill:#999999;stroke:#000000;stroke-miterlimit:10;}
	.st2{fill:#CCCCCC;stroke:#000000;stroke-miterlimit:10;}
	.st3{fill:#ADADAD;stroke:#000000;stroke-miterlimit:10;}
	.st4{fill:#B8B8B8;stroke:#000000;stroke-miterlimit:10;}
	.st5{fill:#C2C2C2;stroke:#000000;stroke-miterlimit:10;}
	.st6{fill:#A3A3A3;stroke:#000000;stroke-miterlimit:10;}
	.st7{fill:#6E6E6E;stroke:#000000;stroke-miterlimit:10;}
	.st8{fill:#636363;stroke:#000000;stroke-miterlimit:10;}
	.st9{fill:#8A8A8A;stroke:#000000;stroke-miterlimit:10;}
	.st10{fill:#808080;stroke:#000000;stroke-miterlimit:10;}
	.st11{fill:#454545;stroke:#000000;stroke-miterlimit:10;}
	.st12{fill:#383838;stroke:#000000;stroke-miterlimit:10;}
	.st13{fill:#DEDEDE;stroke:#000000;stroke-miterlimit:10;}
	.st14{fill:#292929;stroke:#000000;stroke-miterlimit:10;}
	.st15{fill:#E8E8E8;stroke:#000000;stroke-miterlimit:10;}
	.st16{fill:#D4D4D4;stroke:#000000;stroke-miterlimit:10;}
	.st17{fill:#1A1A1A;stroke:#000000;stroke-miterlimit:10;}
</style>
<g>
	<path id="stormSector-6" class="st0" d="M802.2,645.9h511.4c0-72.4-12.8-141.8-36.2-206.1L808.6,610.4L802.2,645.9z"/>
	<path id="stormSector-1" class="st1" d="M692.3,752.9L692.3,752.9l-85.9,486.5c34,6,69,9.1,104.6,9.1s70.7-3.1,104.6-9.1l-85.8-486.5H692.3z"/>
	<path id="stormSector-14" class="st2" d="M618.6,613.2l0.8-0.6L144.7,439.8c-23.4,64.3-36.2,133.7-36.2,206.1h491.4L618.6,613.2z"/>
	<path id="stormSector-17" class="st3" d="M650.9,721.9l-20.1-8.7l0,0l-381.4,320c45.1,53.6,99.3,99.3,160.3,134.6L668.8,719L650.9,721.9z"/>
	<path id="stormSector-16" class="st4" d="M614.3,698.9l-8.5-2l-7.6-9.9L144.7,852.1c24.3,66.7,60,127.9,104.8,181.2l381.4-320L614.3,698.9z"/>
	<path id="stormSector-15" class="st5" d="M598.2,687l-4.6-6l6.2-35.1H108.5c0,72.4,12.8,141.8,36.2,206.1L598.2,687L598.2,687z"/>
	<path id="stormSector-0" class="st6" d="M678.7,737.8l-9.9-18.8l0,0l-259.1,448.8c59.8,34.6,126.1,59.2,196.7,71.6l85.8-486.5L678.7,737.8z"/>
	<path id="stormSector-4" class="st7" d="M772.7,697.7L772.7,697.7l399.9,335.6c44.8-53.3,80.5-114.5,104.8-181.2L783.7,672.4L772.7,697.7z"/>
	<path id="stormSector-5" class="st8" d="M802.2,645.9l-18.5,26.4l0,0l493.7,179.7c23.4-64.3,36.2-133.7,36.2-206.1H802.2z"/>
	<path id="stormSector-2" class="st9" d="M760.6,731.7L730,752.9h-0.1l85.8,486.5c70.5-12.4,136.9-37,196.7-71.6L760.6,731.7L760.6,731.7z"/>
	<path id="stormSector-3" class="st10" d="M761.6,709.7l-1,22.1l251.8,436.1c61-35.3,115.2-81,160.3-134.6L772.7,697.7L761.6,709.7z"/>
	<path id="stormSector-7" class="st11" d="M808.6,610.4L808.6,610.4l468.8-170.6c-24.3-66.7-60-127.9-104.8-181.2l-384.9,323L808.6,610.4z"/>
	<path id="stormSector-8" class="st12" d="M755.1,586.2l8.2-3.7l24.4-0.9l0,0l384.9-323c-45.1-53.6-99.3-99.3-160.3-134.6L745.4,586.3L755.1,586.2z"/>
	<path id="stormSector-12" class="st13" d="M678.1,588.8L409.7,124c-61,35.3-115.2,81-160.3,134.6l396.9,333.1L678.1,588.8z"/>
	<path id="stormSector-9" class="st14" d="M723.7,574l12.3,12.5l9.4-0.1L1012.4,124c-59.8-34.6-126.1-59.2-196.7-71.6L723.7,574L723.7,574z"/>
	<path id="stormSector-11" class="st15" d="M678.1,588.8l21.6-7.3l0,0L606.4,52.4c-70.5,12.4-136.9,37-196.7,71.6L678.1,588.8L678.1,588.8z"/>
	<path id="stormSector-13" class="st16" d="M646.4,591.7L646.4,591.7L249.5,258.6c-44.8,53.3-80.5,114.5-104.8,181.2l474.7,172.8L646.4,591.7z"/>
	<path id="stormSector-10" class="st17"  d="M709.7,574h14l92-521.6	c-34-6-69-9.1-104.6-9.1	s-70.7,3.1-104.6,9.1 l93.3,529.1L709.7,574z"/>
</g>
</svg>
